<svg width="205" height="244" viewBox="0 0 205 244" fill="none" xmlns="http://www.w3.org/2000/svg">
<path d="M204.932 121.825C205.308 109.021 204.105 96.2448 201.748 83.655C199.37 70.8785 195.728 58.5309 189.578 47.0548C180.858 30.785 168.504 18.3889 151.844 10.4269C142.352 5.90292 132.376 3.28122 122.023 1.84239C105.814 -0.378113 89.6879 0.002345 73.6706 3.55099C60.8854 6.42173 49.1184 11.513 38.6907 19.6341C25.2154 30.0863 16.1748 43.7829 10.2367 59.6722C3.73818 76.9728 1.16889 95.0826 0.451386 113.462C-0.163614 128.328 0.690569 143.159 3.28724 157.831C5.6379 171.285 9.25268 184.283 15.6145 196.382C26.7392 217.445 43.5355 231.681 66.188 238.371C88.5467 244.949 111.145 245.136 133.824 239.858C151.366 235.742 166.372 227.185 178.296 213.461C188.354 201.874 194.771 188.309 198.727 173.554C203.244 156.634 205.41 139.417 204.932 121.819V121.825ZM122.727 151.986C121.928 156.641 120.534 161.193 119.167 165.71C118.046 169.314 115.607 172.178 112.778 174.619C107.537 179.116 96.0634 178.791 91.4099 173.402C88.9499 170.559 86.8657 167.66 85.663 164.008C83.3875 157.319 82.055 150.388 81.7065 143.38C81.2008 133.149 80.7977 122.884 81.0096 112.653C81.2214 102.796 81.8091 92.9175 84.5902 83.3645C85.9842 78.5154 88.0137 74.1574 91.5465 70.3459C96.282 65.31 107.755 64.8741 112.969 69.5365C115.962 72.1928 118.32 75.3264 119.604 79.2002C121.743 85.668 123.24 92.2188 123.588 99.0947C123.991 106.759 124.415 114.389 124.818 122.109C124.524 132.098 124.442 142.142 122.734 151.999L122.727 151.986Z" fill="#FEFCF1"/>
</svg>
