<svg width="82" height="275" viewBox="0 0 82 275" fill="none" xmlns="http://www.w3.org/2000/svg">
<path d="M0.885754 137.381C0.885754 99.6947 0.865211 62.0084 0.926711 24.3222C0.926711 21.2785 1.16589 18.1449 1.88339 15.1981C3.82406 7.18079 9.10626 2.46309 17.0398 0.89975C19.7594 0.360189 22.5747 0.159584 25.349 0.138831C35.8724 0.055822 46.3889 0.0973267 56.9122 0.111162C61.3744 0.111162 65.7478 0.623052 69.9093 2.4285C74.8908 4.59367 78.2596 8.37751 79.7082 13.5102C80.7401 17.1488 81.2867 21.0572 81.2935 24.8479C81.4029 65.0936 81.3618 105.346 81.3618 145.592C81.3618 180.331 81.396 215.064 81.314 249.803C81.3072 253.096 80.8972 256.465 80.1456 259.667C78.2459 267.768 72.7997 272.271 64.9004 273.834C62.4267 274.326 59.8711 274.547 57.3496 274.568C46.4504 274.644 35.5443 274.637 24.6452 274.581C20.1898 274.561 15.8166 273.993 11.696 272.043C7.06305 269.843 4.11109 266.191 2.42325 261.397C1.22059 257.973 0.865234 254.445 0.865234 250.82C0.899401 220.57 0.885754 190.32 0.885754 160.07C0.885754 152.509 0.885754 144.942 0.885754 137.381Z" fill="#FEFCF1"/>
</svg>
