<svg width="209" height="275" viewBox="0 0 209 275" fill="none" xmlns="http://www.w3.org/2000/svg">
<path d="M73.2218 136.281H73.2424C75.6477 136.924 78.1282 135.582 78.9413 133.203L78.955 133.161C86.5605 110.818 95.6488 89.1593 108.55 69.3408C112.377 63.461 116.579 57.8094 120.932 52.3239C125.552 46.4994 131.401 42.1967 138.767 40.6403C142.341 39.8863 146.038 39.4574 149.68 39.409C161.215 39.2568 172.763 39.2361 184.298 39.4228C187.933 39.4782 191.678 39.9209 195.156 40.9308C203.8 43.4488 207.374 50.6014 204.374 59.2275C203.294 62.3196 201.668 65.3217 199.789 68.0057C180.956 94.88 162.014 121.678 143.106 148.504L143.079 148.546C141.336 151.022 141.323 154.349 143.024 156.86C146.352 161.786 149.639 166.648 152.933 171.511C169.695 196.255 186.45 220.992 203.219 245.736C205.747 249.471 207.798 253.414 208.46 257.959C209.246 263.382 207.681 267.761 203.069 270.929C198.409 274.132 193.079 274.471 187.762 274.561C178.763 274.72 169.756 274.678 160.75 274.581C155.304 274.519 149.864 274.27 144.425 273.98C136.615 273.564 130.506 270.12 125.757 263.728C114.092 248.011 103.261 231.804 95.191 213.846C89.738 201.713 84.8453 189.365 80.6633 176.727L80.6497 176.693C79.9595 174.604 77.7728 173.421 75.6681 174.002L74.7867 174.244C72.6342 174.839 71.3358 177.038 71.8346 179.238C74.1238 189.345 80.1167 216.316 81.702 230.773C82.4264 237.393 82.8842 244.048 83.1575 250.702C83.383 256.271 82.522 261.666 79.1805 266.405C76.0986 270.77 71.7322 272.88 66.7575 273.841C64.1609 274.346 61.4685 274.561 58.824 274.574C47.5354 274.651 36.2535 274.616 24.9648 274.602C20.6257 274.602 16.3822 274.083 12.33 272.361C7.05468 270.12 3.59019 266.156 2.17569 260.67C1.26002 257.122 0.733859 253.359 0.727026 249.692C0.645026 180.573 0.665549 111.461 0.665549 42.342C0.665549 36.1855 0.549352 30.029 0.720186 23.8793C0.802186 20.9602 1.16436 17.9926 1.84086 15.1565C3.76103 7.06996 9.13202 2.50445 17.0313 0.892682C19.382 0.415378 21.8078 0.16635 24.2063 0.152515C36.1237 0.0833406 48.0478 0.076423 59.9652 0.145597C64.4205 0.173267 68.7802 0.844259 72.8733 2.86415C77.3697 5.07773 80.3422 8.64713 81.702 13.3856C82.5699 16.4223 83.1644 19.6735 83.1507 22.821C83.1165 32.955 83.096 43.1029 82.8431 53.237C82.5083 66.5461 80.0347 88.1078 77.1373 101.092C75.347 109.095 71.7732 123.511 69.976 130.761C69.3747 133.189 70.8165 135.651 73.2082 136.288L73.2218 136.281Z" fill="#FEFCF1"/>
</svg>
