<svg width="73" height="69" viewBox="0 0 73 69" fill="none" xmlns="http://www.w3.org/2000/svg">
<path d="M70.1626 37.835C50.6677 28.4814 48.1339 24.6867 47.5455 3.99661C47.4901 2.11632 46.154 0.509528 44.2917 0.0992827C42.4364 -0.310963 40.5257 0.577903 39.6672 2.25307C30.2105 20.721 26.2783 23.0867 4.6096 23.3534C2.67811 23.3739 1.02355 24.7072 0.601248 26.567C0.17895 28.4267 1.10661 30.3275 2.84426 31.1617C22.3392 40.5153 24.873 44.3101 25.4614 65.0001C25.5168 66.8804 26.8529 68.4872 28.7152 68.8974C29.0198 68.9658 29.3244 69 29.6221 69C31.1659 69 32.6128 68.1453 33.3328 66.7436C42.7895 48.2758 46.7217 45.91 68.3904 45.6434C70.3219 45.6228 71.9764 44.2896 72.3988 42.4298C72.821 40.57 71.8934 38.6692 70.1557 37.835H70.1626Z" fill="#FEFCF1"/>
</svg>
