<svg width="163" height="239" viewBox="0 0 163 239" fill="none" xmlns="http://www.w3.org/2000/svg">
<path d="M62.7485 46.2205C62.2428 48.7038 63.8487 51.0973 66.3291 51.4916C66.4248 51.5054 66.5205 51.5123 66.6161 51.5331C69.3768 52.0726 71.0646 49.3472 71.2628 48.9529C75.5473 40.1885 78.6155 30.9883 84.8406 23.4137C93.9358 12.3527 105.648 5.56666 119.472 2.66825C125.273 1.45078 131.246 1.04957 137.15 0.357826C138.653 0.177973 140.191 0.219477 141.708 0.281734C154.26 0.821294 161.114 8.1192 162.29 20.5153C162.385 21.5321 162.385 22.5628 162.385 23.5866C162.385 35.6368 162.385 47.6939 162.385 59.7441C162.385 64.3857 161.975 68.9581 160.117 73.2746C157.766 78.7255 154.028 80.6624 148.268 79.7562C143.143 78.9538 137.997 78.0546 132.831 77.847C110.917 76.9893 95.3981 87.7805 86.9111 107.73C83.1118 116.654 81.3898 126.117 80.9251 135.739C80.522 144.185 80.6997 152.659 80.686 161.119C80.6587 178.683 80.7406 196.253 80.6244 213.816C80.6039 217.109 80.153 220.464 79.415 223.681C77.5973 231.663 72.199 236.056 64.532 237.778C62.318 238.276 60.0083 238.525 57.7396 238.539C46.1981 238.615 34.6635 238.629 23.122 238.532C20.4775 238.512 17.7851 238.186 15.2158 237.557C6.55112 235.44 1.15963 228.737 0.360128 219.35C0.209795 217.566 0.223495 215.76 0.223495 213.968C0.223495 151.912 0.202987 89.8488 0.257653 27.7924C0.257653 24.7418 0.489985 21.622 1.15282 18.6614C2.99782 10.402 8.41666 5.69809 16.4937 4.114C19.0903 3.60211 21.7826 3.4015 24.4271 3.37383C33.0508 3.28391 41.6745 3.18706 50.2913 3.40842C53.5918 3.49143 56.9743 3.78888 60.1928 4.52213C66.5273 5.97479 70.9621 12.0345 69.9781 18.5299C69.6023 21.041 68.8575 23.5313 67.9828 25.9109C66.0626 31.1266 63.8965 40.5689 62.7416 46.2066L62.7485 46.2205Z" fill="#FEFCF1"/>
</svg>
