<svg width="208" height="240" viewBox="0 0 208 240" fill="none" xmlns="http://www.w3.org/2000/svg">
<path d="M204.852 65.5726C202.228 50.956 197.233 37.3909 188.568 25.2093C183.273 17.7661 176.268 11.6165 168.109 7.61134C153.589 0.548627 138.425 -0.807191 123.126 1.41331C108.119 3.66148 95.635 10.6965 85.8428 22.4769C79.399 30.2452 75.094 39.2102 71.7525 48.6595C71.6705 48.8462 71.5885 49.0953 71.5133 49.3097C70.7343 51.4472 68.5203 52.72 66.2995 52.2358C63.8395 51.7446 62.261 49.3097 62.6915 46.8194C63.7917 40.6214 65.4727 34.8246 67.5842 29.1108C68.7868 25.8872 69.805 22.5599 70.4473 19.1773C71.7047 12.7372 69.108 7.94338 62.9307 6.10333C59.104 4.91353 54.963 4.56075 50.9518 4.45007C42.2052 4.18029 33.4585 4.29097 24.7187 4.39473C21.9375 4.4224 19.1017 4.63684 16.4025 5.15565C8.46218 6.72591 3.13901 11.409 1.23935 19.4471C0.48768 22.4769 0.275844 25.7835 0.275844 28.9517C0.193844 90.5653 0.221166 152.186 0.221166 213.827C0.221166 215.453 0.310002 218.116 0.501335 219.735C0.774669 221.997 1.18467 224.252 1.827 226.417C3.26884 231.287 6.3985 234.863 11.0247 237.056C15.1452 239.034 19.5322 239.546 23.9943 239.602C35.0097 239.657 46.0318 239.657 57.0745 239.546C59.719 239.546 62.3977 239.332 64.9875 238.813C73.249 237.077 78.8933 232.152 80.3147 223.408C81.0663 218.725 80.4787 214.201 79.645 209.684C78.415 203.05 76.0643 197.834 73.249 190.979C69.682 182.27 68.6297 178.79 66.7983 171.527C66.1697 169.023 67.9053 166.533 70.4268 166.145L70.502 166.132C72.3675 165.848 74.192 166.782 75.0462 168.483C77.9913 174.342 85.2278 187.541 91.8015 192.487C98.0335 197.17 105.038 200.041 112.445 201.853C124.772 204.938 137.291 205.077 149.748 202.531C160.34 200.394 169.968 196.008 178.284 188.89C188.93 179.738 195.641 167.909 200.212 154.863C205.16 140.731 207.059 126.003 207.729 111.117C208.426 95.8503 207.565 80.6596 204.839 65.5795L204.852 65.5726ZM125.961 116.146C125.428 119.854 123.822 123.188 122.005 126.46C117.912 133.689 110.053 137.341 101.682 136.449C89.4098 135.121 83.6835 126.079 81.49 113.192C80.2873 106.13 80.342 98.8178 81.49 91.6998C82.802 83.4404 85.5832 75.7274 92.8812 71.1827C101.361 65.9323 115.424 67.1221 121.895 78.0309C125.503 84.1529 126.788 90.8628 127.321 97.8217C127.43 99.3643 127.321 100.907 127.321 102.422C127.478 102.422 126.597 111.601 125.954 116.146H125.961Z" fill="#FEFCF1"/>
</svg>
