<svg width="191" height="283" viewBox="0 0 191 283" fill="none" xmlns="http://www.w3.org/2000/svg">
<path d="M1.09281 230.78C1.09281 225.91 0.921974 221.027 1.15431 216.171C1.27731 213.611 1.54381 211.003 2.11097 208.499C3.57331 201.997 9.44997 197.438 16.0373 197.604C19.5565 197.694 22.9185 198.538 26.1985 199.797C39.0246 204.722 52.2472 208.174 65.7498 210.464C76.526 212.29 87.4115 213.002 98.3243 212.221C101.7 211.979 105.103 211.218 108.335 210.18C115.045 208.036 118.681 202.882 118.804 195.785C118.927 188.501 115.701 183.001 109.736 179.072C105.342 176.174 100.504 174.265 95.4543 172.971C87.1177 170.834 78.6648 169.118 70.3965 166.725C56.3881 162.664 43.0221 157.179 31.2825 148.324C14.5271 135.693 0.915141 107.539 0.0814738 86.3923C-0.390026 74.4736 1.16114 62.7485 5.35681 51.2794C10.2153 38.0117 18.47 27.3727 29.8065 19.2032C41.7853 10.5702 55.3153 5.74183 69.6721 3.05094C85.9628 0.0003503 102.363 -0.553045 118.879 0.470737C133.817 1.39767 148.631 3.20313 163.309 6.13612C166.788 6.83479 170.184 7.84473 173.17 9.95455C180.236 14.942 183.017 22.2469 183.304 30.4717C183.652 40.585 183.468 50.726 183.311 60.8531C183.249 64.9482 182.586 69.0019 180.482 72.675C177.919 77.1506 174.01 79.6063 169.029 79.7723C165.4 79.8968 161.594 79.7723 158.13 78.7831C143.459 74.6119 128.582 71.5751 113.426 70.2193C103.853 69.3616 94.1765 68.7528 84.7055 71.3953C78.1113 73.2353 74.5717 77.4411 74.5922 83.3901C74.6127 88.5851 77.4827 93.3305 81.7057 96.2773C85.2248 98.7399 89.1062 100.476 93.2608 101.514C99.6432 103.112 106.053 104.627 112.463 106.135C125.589 109.22 138.293 113.481 150.142 120.073C168.797 130.45 181.616 145.53 186.768 166.78C192.023 188.438 191.032 209.806 183.099 230.566C175.589 250.211 161.464 263.666 142.516 272.07C129.73 277.743 116.241 280.316 102.411 281.54C90.9922 282.557 79.601 282.274 68.2303 281.347C52.6776 280.081 37.3505 277.39 22.365 272.928C20.7865 272.458 19.2421 271.877 17.7115 271.275C6.53214 266.903 1.65314 258.139 1.12014 246.524C0.880974 241.281 1.07914 236.01 1.07914 230.759H1.09964L1.09281 230.78Z" fill="#FEFCF1"/>
</svg>
