<svg width="199" height="244" viewBox="0 0 199 244" fill="none" xmlns="http://www.w3.org/2000/svg">
<path d="M198.1 120.013C198.1 112.217 197.751 104.394 197.328 96.6255C196.713 85.1772 194.546 73.964 191.014 63.1105C182.486 36.928 165.771 18.6314 139.962 8.99535C125.147 3.5029 109.765 1.46918 94.1511 0.687506C75.3526 -0.260184 56.6839 1.36541 38.1519 4.58894C31.8106 5.69573 25.4761 7.16224 19.3534 9.11296C11.9734 11.4718 7.2379 16.8812 5.26307 24.4904C4.56607 27.1952 4.19025 30.0106 4.16291 32.826C4.05358 45.2497 4.02625 57.6803 4.16291 70.1317C4.16291 72.788 4.66857 75.4927 5.39291 78.0107C6.91674 83.2057 9.96441 84.9696 15.1782 84.0496C19.1074 83.3164 22.6676 81.67 26.0911 79.6916C33.4164 75.4443 41.3636 72.8434 49.5431 71.0794C59.7863 68.9419 70.1319 68.3747 80.5391 69.4815C91.5818 70.616 101.852 73.7841 110.865 80.5563C117.309 85.4054 122.202 91.4928 126.111 98.6108C127.368 100.859 126.541 103.757 124.293 105.03C122.154 106.192 119.503 105.494 118.198 103.432C118.061 103.218 117.931 102.997 117.794 102.81C111.48 93.0077 103.062 86.0764 91.8278 82.6938C81.8238 79.6916 71.6899 79.2005 61.3648 80.3903C39.7851 82.8529 23.2006 93.0354 12.2399 112.252C4.96925 125.029 2.26324 139.029 1.25191 153.404C0.527574 163.503 0.903407 173.624 2.61857 183.695C4.94191 197.53 9.46558 210.417 18.2601 221.513C25.5854 230.748 35.4801 237.326 46.6867 240.654C56.2602 243.497 65.9978 244.147 75.8924 242.819C85.8964 241.491 94.9848 237.97 102.959 231.613C112.321 224.169 118.259 214.34 122.619 203.376C122.646 203.376 122.646 203.348 122.646 203.348C123.398 201.425 125.455 200.394 127.436 200.858C127.812 200.968 128.263 201.072 128.748 201.183C131.024 201.805 132.356 204.24 131.666 206.488C130.354 210.846 128.325 217.314 127.279 220.78C124.71 229.392 127.388 235.293 135.862 237.783C139.928 238.973 144.315 239.408 148.592 239.54C157.072 239.782 165.573 239.651 174.081 239.595C176.595 239.54 179.165 239.353 181.652 238.862C189.886 237.347 195.421 232.636 197.273 224.162C197.915 221.209 198.127 218.068 198.127 215.038C198.209 183.363 198.236 151.716 198.127 120.013H198.1ZM105.084 171.694C102.782 175.865 99.2283 177.919 94.4654 177.705C90.1058 177.49 87.0854 175.215 85.1038 171.452C81.8648 165.357 81.3864 158.779 81.9194 152.069C82.2133 148.223 82.8283 144.46 84.5434 140.918C86.7643 136.394 90.2151 133.634 95.2376 133.689C100.103 133.717 103.526 136.346 105.638 140.78C107.859 145.518 108.501 150.582 108.392 155.59C108.501 161.304 107.831 166.72 105.078 171.701L105.084 171.694Z" fill="#FEFCF1"/>
</svg>
