<svg width="56" height="56" viewBox="0 0 56 56" fill="none" xmlns="http://www.w3.org/2000/svg">
<rect x="0.5" y="0.5" width="55" height="55" rx="27.5" stroke="#6F71F4" stroke-dasharray="8 8"/>
<path d="M29.0597 28.0002L35.2847 21.7846C35.4043 21.6389 35.4654 21.4539 35.4562 21.2656C35.4469 21.0773 35.368 20.8992 35.2347 20.7659C35.1014 20.6326 34.9232 20.5536 34.7349 20.5444C34.5467 20.5351 34.3617 20.5962 34.2159 20.7158L28.0003 26.9408L21.7847 20.7158C21.639 20.5962 21.454 20.5351 21.2657 20.5444C21.0774 20.5536 20.8993 20.6326 20.766 20.7659C20.6327 20.8992 20.5537 21.0773 20.5445 21.2656C20.5352 21.4539 20.5963 21.6389 20.7159 21.7846L26.9409 28.0002L20.7159 34.2158C20.5751 34.358 20.4961 34.5501 20.4961 34.7502C20.4961 34.9504 20.5751 35.1424 20.7159 35.2846C20.8593 35.4232 21.0509 35.5007 21.2503 35.5007C21.4497 35.5007 21.6413 35.4232 21.7847 35.2846L28.0003 29.0596L34.2159 35.2846C34.3593 35.4232 34.5509 35.5007 34.7503 35.5007C34.9497 35.5007 35.1413 35.4232 35.2847 35.2846C35.4255 35.1424 35.5045 34.9504 35.5045 34.7502C35.5045 34.5501 35.4255 34.358 35.2847 34.2158L29.0597 28.0002Z" fill="#6F71F4"/>
</svg>
