<svg width="56" height="56" viewBox="0 0 56 56" fill="none" xmlns="http://www.w3.org/2000/svg">
<path d="M29.0597 28L35.2847 21.7844C35.4043 21.6387 35.4654 21.4537 35.4562 21.2654C35.4469 21.0771 35.368 20.899 35.2347 20.7657C35.1014 20.6324 34.9232 20.5534 34.7349 20.5442C34.5467 20.5349 34.3617 20.596 34.2159 20.7156L28.0003 26.9406L21.7847 20.7156C21.639 20.596 21.454 20.5349 21.2657 20.5442C21.0774 20.5534 20.8993 20.6324 20.766 20.7657C20.6327 20.899 20.5537 21.0771 20.5445 21.2654C20.5352 21.4537 20.5963 21.6387 20.7159 21.7844L26.9409 28L20.7159 34.2156C20.5751 34.3578 20.4961 34.5499 20.4961 34.75C20.4961 34.9501 20.5751 35.1422 20.7159 35.2844C20.8593 35.423 21.0509 35.5005 21.2503 35.5005C21.4497 35.5005 21.6413 35.423 21.7847 35.2844L28.0003 29.0594L34.2159 35.2844C34.3593 35.423 34.5509 35.5005 34.7503 35.5005C34.9497 35.5005 35.1413 35.423 35.2847 35.2844C35.4255 35.1422 35.5045 34.9501 35.5045 34.75C35.5045 34.5499 35.4255 34.3578 35.2847 34.2156L29.0597 28Z" fill="#FEFCF1"/>
<rect x="0.5" y="0.5" width="55" height="55" rx="27.5" stroke="#FEFCF1" stroke-dasharray="8 8"/>
</svg>
