<svg width="368" height="300" viewBox="0 0 368 300" fill="none" xmlns="http://www.w3.org/2000/svg">
<g clip-path="url(#clip0_2081_300)">
<mask id="mask0_2081_300" style="mask-type:luminance" maskUnits="userSpaceOnUse" x="0" y="0" width="368" height="300">
<path d="M368 0H0V300H368V0Z" fill="white"/>
</mask>
<g mask="url(#mask0_2081_300)">
<path d="M278.749 197.278C277.964 197.311 277.432 197.36 276.909 197.36C262.696 197.36 248.483 197.343 234.278 197.393C233.06 197.393 232.495 197 231.972 195.905C221.251 173.476 210.481 151.071 199.719 128.658C199.473 128.135 199.204 127.628 198.893 127.015C194.411 129.459 190.388 132.344 187.092 136.006C180.959 142.815 174.891 149.698 169.167 156.85C158.912 169.683 147.013 180.489 132.432 188.213C120.869 194.335 108.537 198.104 95.6731 200.286C95.0025 200.401 94.291 200.425 93.6205 200.335C93.2443 200.286 92.9008 199.935 92.541 199.714C92.7782 199.379 92.9417 198.905 93.2688 198.733C94.4791 198.079 95.7303 197.499 96.9897 196.927C103.008 194.188 109.003 191.409 114.04 186.995C116.502 184.837 118.718 182.483 120.174 179.483C121.024 177.726 121.032 176.14 120.198 174.285C118.268 170.034 116.191 165.792 114.891 161.337C112.225 152.158 113.59 143.118 117.401 134.527C119.936 128.821 122.79 123.23 125.898 117.819C132.653 106.041 136.537 93.4036 137.903 79.7123C139.481 81.2571 140.937 82.5732 142.254 84.0036C149.949 92.341 156.728 101.324 161.488 111.697C164.587 118.44 166.525 125.47 166.525 132.941C166.525 134.412 166.353 135.875 166.247 137.674C168.308 136.676 170.197 135.859 171.988 134.878C183.02 128.862 193.283 121.743 202.818 113.544C204.658 111.958 206.801 110.602 209.017 109.596C213.245 107.675 217.53 107.839 221.66 110.16C224.154 111.558 226.73 112.629 229.674 111.983C230.263 111.852 230.819 111.607 231.588 111.354C231.211 111.084 231.072 110.912 230.901 110.871C228.055 110.193 225.683 108.615 223.328 106.972C216.401 102.142 210.047 101.929 202.974 106.515C200.087 108.386 197.454 110.651 194.706 112.735C194.117 113.176 193.52 113.61 192.768 114.165C191.615 111.795 190.502 109.523 189.407 107.242C182.488 92.8151 175.545 78.3963 168.651 63.9529C165.143 56.5964 163.099 48.9129 163.9 40.6572C164.44 35.0499 166.19 29.794 168.529 24.7098C171.636 17.9255 179.888 4.70819 184.017 0C215.584 65.7512 247.109 131.421 278.732 197.278H278.749Z" fill="url(#paint0_linear_2081_300)"/>
<path d="M352.176 279.836C354.703 278.61 357.353 277.694 359.602 276.174C366.863 271.253 367.624 260.055 361.155 254.284C357.484 251.006 352.904 249.952 348.12 249.919C338.307 249.846 328.493 249.895 318.672 249.895H315V298.579H323.546V280.375C323.832 280.318 323.971 280.261 324.11 280.261C329.982 280.261 335.853 280.22 341.717 280.285C342.273 280.285 342.96 280.809 343.344 281.283C347.531 286.457 351.718 291.623 355.791 296.887C356.829 298.235 357.876 298.824 359.593 298.726C362.268 298.571 364.95 298.685 367.984 298.685C362.488 292.138 357.246 285.901 352.16 279.852L352.176 279.836ZM323.521 272.512V257.627C324.061 257.595 324.494 257.546 324.92 257.546C332.509 257.546 340.106 257.496 347.695 257.578C349.24 257.595 350.843 257.913 352.299 258.428C355.014 259.393 356.486 261.477 356.649 264.363C356.813 267.248 355.742 269.659 353.174 271.057C351.792 271.809 350.124 272.422 348.578 272.455C340.302 272.586 332.034 272.52 323.521 272.52V272.512ZM276.679 253.54C265.197 246.584 253.004 246.454 241.392 253.099C226.328 261.722 224.995 282.468 238.44 293.421C244.319 298.219 251.279 299.862 258.72 299.919C263.513 299.919 268.166 299.192 272.549 297.238C281.324 293.339 286.836 286.743 287.907 277.114C289.027 267.076 285.306 258.772 276.671 253.54H276.679ZM269.384 290.061C262.736 293.02 255.85 293.069 249.063 290.511C241.645 287.707 237.736 281.364 238.096 273.199C238.431 265.474 243.175 259.565 250.886 257.325C252.162 256.957 253.479 256.687 254.787 256.507C256.055 256.328 257.338 256.311 258.246 256.246C263.913 256.319 268.943 257.325 273.171 260.75C282.943 268.662 280.882 284.953 269.384 290.061ZM58.0789 296.895C55.2576 291.427 52.4362 285.958 49.6067 280.49C44.5447 270.689 39.4826 260.897 34.4533 251.072C33.9872 250.156 33.4474 249.821 32.4252 249.862C30.4053 249.944 28.3772 249.936 26.3573 249.862C25.4414 249.829 24.9671 250.132 24.55 250.949C17.3699 264.918 10.1653 278.871 2.96072 292.832C2.00392 294.696 1.05529 296.568 -0.0078125 298.66C3.01796 298.66 5.76569 298.62 8.50525 298.685C9.44569 298.71 9.89547 298.342 10.288 297.532C11.6864 294.598 13.1911 291.721 14.5895 288.786C14.9575 288.018 15.3827 287.74 16.2414 287.74C24.9753 287.773 33.7091 287.781 42.443 287.74C43.3998 287.74 43.825 288.092 44.2094 288.893C45.6323 291.868 47.0961 294.827 48.6172 297.753C48.8298 298.162 49.4432 298.62 49.8848 298.628C52.7879 298.701 55.6992 298.669 58.9049 298.669C58.5614 297.933 58.3406 297.402 58.0789 296.895ZM18.9401 280.048C22.4156 272.994 25.8257 266.079 29.3667 258.911C32.8913 266.038 36.3178 272.97 39.8179 280.048H18.9401ZM121.963 283.808C124.278 285.37 126.51 286.865 128.89 288.468C127.116 290.936 125.071 292.947 122.659 294.59C115.847 299.208 108.233 300.434 100.219 299.739C93.5623 299.167 87.4862 297.018 82.5305 292.399C70.4764 281.185 72.2101 262.278 86.0551 253.36C97.4467 246.02 115.315 247.173 125.218 255.919C126.535 257.08 127.647 258.461 129.021 259.916C127.696 260.815 126.576 261.583 125.447 262.344C124.343 263.087 123.239 263.823 122.045 264.624C121.44 263.905 120.876 263.186 120.246 262.523C117 259.058 112.878 257.341 108.266 256.679C103.195 255.952 98.2154 256.27 93.4887 258.404C86.7175 261.461 83.3809 266.839 83.3564 274.18C83.3319 281.454 86.513 286.972 93.2515 289.947C100.521 293.151 107.906 292.988 115.168 289.702C117.965 288.435 120.181 286.432 121.963 283.808ZM199.333 283.825C201.656 285.378 203.929 286.906 206.26 288.468C202.752 293.298 198.164 296.478 192.595 298.203C184.155 300.802 175.749 300.671 167.555 297.271C157.758 293.2 151.649 284.07 151.829 274.114C152.009 263.701 158.044 254.766 168.078 251.039C179.224 246.895 190.166 247.434 200.307 254.162C202.556 255.649 204.363 257.799 206.563 259.818C203.864 261.624 201.664 263.112 199.35 264.665C197.027 261.338 193.969 259.033 190.166 257.783C183.902 255.731 177.638 255.739 171.48 258.134C164.652 260.799 160.661 266.659 160.685 274.098C160.71 281.544 163.973 287.184 170.948 290.102C178.259 293.168 185.652 292.98 192.865 289.538C195.498 288.28 197.583 286.342 199.333 283.833V283.825Z" fill="url(#paint1_linear_2081_300)"/>
</g>
</g>
<defs>
<linearGradient id="paint0_linear_2081_300" x1="123.565" y1="61.0573" x2="189.2" y2="207.8" gradientUnits="userSpaceOnUse">
<stop/>
<stop offset="1"/>
</linearGradient>
<linearGradient id="paint1_linear_2081_300" x1="0.191071" y1="274.643" x2="367.354" y2="274.643" gradientUnits="userSpaceOnUse">
<stop/>
<stop offset="1"/>
</linearGradient>
<clipPath id="clip0_2081_300">
<rect width="368" height="300" fill="white"/>
</clipPath>
</defs>
</svg>
