<svg width="211" height="258" viewBox="0 0 211 258" fill="none" xmlns="http://www.w3.org/2000/svg">
<g clip-path="url(#clip0_2081_467)">
<mask id="mask0_2081_467" style="mask-type:luminance" maskUnits="userSpaceOnUse" x="0" y="0" width="211" height="258">
<path d="M210.01 0.5H0.5V257.39H210.01V0.5Z" fill="white"/>
</mask>
<g mask="url(#mask0_2081_467)">
<path d="M37.5802 130.66V59.2697C37.5802 59.2697 37.0002 -0.920305 110.63 0.52969C110.63 0.52969 62.7202 8.47969 59.8302 61.5197V130.67H37.5802V130.66Z" fill="black"/>
<path d="M72.2109 130.66H94.7809V60.8699C94.7809 60.8699 94.7809 54.7099 99.7409 51.1899L108.701 62.0699L117.821 51.1899C117.821 51.1899 122.781 55.5399 122.841 60.8699C122.901 66.1999 122.841 130.66 122.841 130.66H145.361V60.8699C145.361 60.8699 145.731 17.1199 95.7909 27.3599C95.7909 27.3599 102.941 18.7699 115.591 18.7699C128.241 18.7699 146.701 23.1999 155.871 48.9199C155.871 48.9199 157.201 53.7499 157.201 60.8699V130.66H180.091V60.8699C180.091 60.8699 181.041 24.3499 147.381 7.7499C143.531 5.8499 127.911 -0.440103 113.051 2.1799C102.811 3.9899 90.7809 10.4699 80.8509 26.1799C80.8509 26.1799 72.2109 40.2699 72.2109 63.2099V130.65V130.66Z" fill="black"/>
<path d="M51.72 152.65L38.7 177.4L26.11 152.65H0.5L38.7 227.13L76.91 152.65H51.72Z" fill="black"/>
<path d="M209.87 152.65H184.02L176.14 166.07L168.25 152.65H142.43L163.2 188.11L142.43 223.5H168.33L176.14 210.19L183.94 223.5H209.87L189.08 188.11L209.87 152.65Z" fill="black"/>
<path d="M109.881 148.27C88.2507 148.27 70.7207 165.92 70.7207 187.7C70.7207 209.48 88.2507 227.13 109.881 227.13C131.511 227.13 149.041 209.48 149.041 187.7C149.041 165.92 131.511 148.27 109.881 148.27ZM109.881 202.48C101.771 202.48 95.2007 195.86 95.2007 187.7C95.2007 179.54 101.771 172.92 109.881 172.92C117.991 172.92 124.561 179.54 124.561 187.7C124.561 195.86 117.991 202.48 109.881 202.48Z" fill="black"/>
<path d="M207.23 244.53L207.2 249.95C206.96 250.94 205.41 250.94 205.41 250.94V245.84H202.85V248.99C202.85 251.07 200.22 250.9 200.22 250.9V245.86H197.7V249.52C197.7 250.86 196.82 250.88 196.82 250.88H181.27V246.48H178.67V250.88H162.49V246.48H159.89V250.88H143.85C143.85 250.77 143.87 250.65 143.87 250.54C143.87 248.23 142 246.36 139.69 246.36C137.38 246.36 135.51 248.23 135.51 250.54C135.51 250.65 135.51 250.77 135.53 250.88H118.99V240.77H116.32V252.88H134.81C135.67 252.88 135.88 252.24 135.88 252.24C136.53 253.7 137.99 254.72 139.7 254.72C141.41 254.72 142.76 253.77 143.44 252.4C143.56 252.73 144.01 252.88 144.01 252.88H200.17C201.93 252.88 202.89 251.63 202.89 251.63V252.88H205.96C207.85 252.88 208.91 251.81 209.46 250.9C209.87 250.22 210.01 248.58 210.01 248.58V244.52H207.24L207.23 244.53ZM139.69 251.94C138.83 251.94 138.14 251.24 138.14 250.39C138.14 249.54 138.84 248.84 139.69 248.84C140.54 248.84 141.24 249.54 141.24 250.39C141.24 251.24 140.54 251.94 139.69 251.94Z" fill="black"/>
<path d="M162.491 241.91H159.891V243.94H162.491V241.91Z" fill="black"/>
<path d="M179.03 255.359H176.43V257.389H179.03V255.359Z" fill="black"/>
<path d="M183.27 255.359H180.67V257.389H183.27V255.359Z" fill="black"/>
<path d="M20.6498 243.109C19.0898 243.109 17.8598 243.539 16.9498 244.409C16.0398 245.269 15.5898 246.449 15.5898 247.929C15.5898 249.409 16.0398 250.579 16.9498 251.439C17.8598 252.299 19.0898 252.739 20.6498 252.739C21.1698 252.739 21.6698 252.679 22.1498 252.569C22.6298 252.449 23.0898 252.279 23.5298 252.049V250.129C23.0798 250.429 22.6398 250.649 22.2098 250.789C21.7798 250.929 21.3198 250.999 20.8398 250.999C19.9798 250.999 19.2998 250.729 18.8098 250.179C18.3198 249.629 18.0698 248.879 18.0698 247.919C18.0698 246.959 18.3198 246.199 18.8098 245.659C19.2998 245.109 19.9798 244.839 20.8398 244.839C21.3198 244.839 21.7798 244.909 22.2098 245.049C22.6398 245.189 23.0798 245.409 23.5298 245.719V243.799C23.0898 243.569 22.6298 243.399 22.1498 243.279C21.6698 243.159 21.1698 243.109 20.6498 243.109Z" fill="black"/>
<path d="M31.8006 243.279H29.3906V252.559H31.8006V243.279Z" fill="black"/>
<path d="M44.1 249.639L40.7 243.279H38V252.559H40.29V246.199L43.69 252.559H46.38V243.279H44.1V249.639Z" fill="black"/>
<path d="M55.0001 248.629H58.8501V246.819H55.0001V245.089H59.0901V243.279H52.5801V252.559H59.2301V250.749H55.0001V248.629Z" fill="black"/>
<path d="M70.3895 248.249L68.2595 243.279H65.1895V252.559H67.4794V245.769L69.6294 250.779H71.1594L73.3094 245.769V252.559H75.5894V243.279H72.5294L70.3895 248.249Z" fill="black"/>
<path d="M84.1495 243.279L80.6895 252.559H83.1095L83.6994 250.869H87.4695L88.0594 252.559H90.4794L87.0194 243.279H84.1495ZM84.3094 249.149L85.5894 245.459L86.8695 249.149H84.3094Z" fill="black"/>
<path d="M99.8203 246.96L98.7903 246.75C98.3003 246.65 97.9603 246.53 97.7803 246.39C97.6003 246.25 97.5003 246.06 97.5003 245.81C97.5003 245.48 97.6404 245.23 97.9104 245.08C98.1904 244.92 98.6103 244.84 99.1903 244.84C99.6203 244.84 100.09 244.9 100.57 245.01C101.06 245.13 101.56 245.3 102.07 245.53V243.57C101.49 243.42 100.93 243.3 100.39 243.22C99.8503 243.14 99.3203 243.1 98.8103 243.1C97.6803 243.1 96.8203 243.35 96.2203 243.85C95.6203 244.35 95.3203 245.06 95.3203 245.98C95.3203 246.72 95.5403 247.3 95.9703 247.74C96.4003 248.18 97.0903 248.49 98.0203 248.69L98.9503 248.9C99.5203 249.02 99.9003 249.17 100.09 249.32C100.28 249.48 100.37 249.7 100.37 249.99C100.37 250.31 100.23 250.56 99.9503 250.74C99.6703 250.91 99.2703 251 98.7403 251C98.2103 251 97.6803 250.92 97.1303 250.76C96.5703 250.6 96.0003 250.36 95.4003 250.05V252.07C96.0003 252.29 96.5903 252.46 97.1903 252.57C97.7903 252.68 98.3803 252.74 98.9703 252.74C100.23 252.74 101.16 252.49 101.77 251.99C102.38 251.49 102.69 250.73 102.69 249.71C102.69 248.93 102.47 248.33 102.03 247.91C101.59 247.49 100.85 247.17 99.8103 246.97L99.8203 246.96Z" fill="black"/>
</g>
</g>
<defs>
<clipPath id="clip0_2081_467">
<rect width="210" height="257" fill="white" transform="translate(0.5 0.5)"/>
</clipPath>
</defs>
</svg>
