<svg width="626" height="288" viewBox="0 0 626 288" fill="none" xmlns="http://www.w3.org/2000/svg">
<g clip-path="url(#clip0_2081_245)">
<path fill-rule="evenodd" clip-rule="evenodd" d="M625.38 143.95C625.38 223.451 560.931 287.9 481.43 287.9C401.929 287.9 337.48 223.451 337.48 143.95C337.48 64.4486 401.929 0 481.43 0C560.931 0 625.38 64.4486 625.38 143.95ZM428.28 266.08C380.49 245.64 347 198.19 347 142.92L347.03 142.9C347.03 68.95 406.98 9 480.93 9C538.11 9 586.91 44.84 606.11 95.29C603.52 91.54 563.28 35.14 486.69 42.26C469.32 43.75 453.81 49.58 444.77 53.64C427.07 62.04 414.86 72.69 409.77 78.73C409.719 78.7875 409.67 78.8461 409.621 78.905C409.597 78.9333 409.573 78.9617 409.55 78.99L409.55 78.9904C409.477 79.0777 409.405 79.1651 409.33 79.25C390.3 91.56 384.7 103.59 384.7 103.59C373.13 129.11 391.33 148.09 391.33 148.09C388.216 136.591 395.678 130.528 396.011 130.257L396.02 130.25C409.66 133.89 427.38 133.73 428.67 133.71C429.42 133.97 430.12 134.18 430.77 134.31C467.1 141.88 486.03 172.35 479.99 207.12C477 228.88 455.71 252.75 428.28 266.08ZM557.371 252.84C574.841 240.67 589.261 224.44 599.291 205.52C583.451 163.99 547.691 129.64 499.871 119.4C514.941 123.54 579.661 153.93 564.771 232.39C563.051 239.62 560.561 246.45 557.371 252.84ZM436.941 94.8498C462.361 77.1398 494.611 67.2298 532.951 72.3398V72.3298C566.721 76.0798 596.971 96.8398 611.751 114.38C613.751 123.58 614.811 133.12 614.811 142.91C614.811 143.92 614.791 144.92 614.771 145.92C607.321 129.56 568.111 76.6498 496.151 78.8298C496.851 81.4798 496.971 84.2998 496.381 87.1298C494.221 97.5298 483.381 104.08 472.191 101.75C463.821 100.01 457.621 93.8098 455.931 86.4398C445.127 90.3038 437.885 94.3261 437.027 94.8028C436.97 94.8344 436.941 94.8504 436.941 94.8498Z" fill="black"/>
<path d="M23.04 165.609H35.25L58.29 226.979H44.54L39.64 212.799H18.15L13.25 226.979H0L23.04 165.609ZM36.27 202.229L28.79 180.229L21.4 202.229H36.27Z" fill="black"/>
<path d="M65.7502 165.609H88.7002C98.1002 165.609 105.42 168.159 110.66 173.259C115.9 178.359 118.52 185.929 118.52 195.949C118.52 201.049 117.79 205.519 116.33 209.359C114.87 213.199 112.76 216.439 110.01 219.069C107.26 221.709 103.91 223.679 99.9502 224.999C96.0002 226.319 91.5302 226.979 86.5402 226.979H65.7402V165.609H65.7502ZM86.8102 216.069C90.1302 216.069 92.9702 215.599 95.3202 214.649C97.6702 213.699 99.5802 212.339 101.04 210.569C102.5 208.789 103.58 206.689 104.26 204.249C104.94 201.809 105.29 199.079 105.29 196.039C105.29 192.999 104.99 190.349 104.39 187.919C103.79 185.489 102.83 183.439 101.51 181.769C100.19 180.109 98.4902 178.819 96.4002 177.899C94.3102 176.979 91.7402 176.529 88.7102 176.529H78.5702V216.069H86.8202H86.8102Z" fill="black"/>
<path d="M128.77 165.609H140.29L165.56 205.839V165.609H178.02V226.979H166.59L141.23 187.099V226.979H128.77V165.609Z" fill="black"/>
<path d="M217.9 228.53C213.31 228.53 209.22 227.78 205.61 226.3C202 224.81 198.93 222.66 196.41 219.85C193.89 217.04 191.95 213.66 190.61 209.71C189.26 205.76 188.59 201.29 188.59 196.3C188.59 191.31 189.26 186.84 190.61 182.89C191.96 178.94 193.91 175.56 196.46 172.75C199.01 169.94 202.09 167.79 205.7 166.3C209.31 164.81 213.38 164.07 217.91 164.07C222.44 164.07 226.59 164.82 230.2 166.3C233.81 167.79 236.86 169.94 239.36 172.75C241.85 175.56 243.76 178.94 245.08 182.89C246.4 186.84 247.06 191.31 247.06 196.3C247.06 201.29 246.42 205.76 245.13 209.71C243.84 213.66 241.95 217.05 239.46 219.85C236.97 222.66 233.92 224.81 230.31 226.3C226.7 227.79 222.57 228.53 217.93 228.53H217.9ZM217.82 217.53C223.21 217.53 227.22 215.7 229.85 212.03C232.48 208.36 233.8 203.12 233.8 196.3C233.8 189.48 232.48 184.31 229.85 180.61C227.21 176.91 223.2 175.07 217.82 175.07C212.44 175.07 208.42 176.92 205.79 180.61C203.15 184.31 201.84 189.54 201.84 196.3C201.84 203.06 203.16 208.36 205.79 212.03C208.43 215.7 212.44 217.53 217.82 217.53Z" fill="black"/>
<path d="M309.531 205.751C309.241 209.021 308.481 212.041 307.251 214.821C306.021 217.601 304.331 220.011 302.181 222.041C300.031 224.071 297.391 225.671 294.271 226.811C291.151 227.961 287.521 228.531 283.401 228.531C278.761 228.531 274.671 227.761 271.151 226.211C267.631 224.661 264.671 222.491 262.301 219.681C259.921 216.871 258.131 213.481 256.931 209.491C255.731 205.511 255.131 201.111 255.131 196.291C255.131 191.471 255.791 186.831 257.111 182.881C258.431 178.931 260.321 175.551 262.781 172.741C265.241 169.931 268.221 167.781 271.721 166.291C275.221 164.801 279.171 164.061 283.581 164.061C287.481 164.061 290.871 164.551 293.771 165.521C296.661 166.491 299.101 167.901 301.081 169.731C303.061 171.571 304.651 173.771 305.851 176.351C307.051 178.931 307.941 181.821 308.511 185.031L295.791 186.661C295.161 183.051 293.941 180.211 292.141 178.151C290.341 176.091 287.481 175.061 283.591 175.061C278.661 175.061 274.921 176.911 272.371 180.601C269.821 184.301 268.541 189.531 268.541 196.291C268.541 203.051 269.901 208.351 272.621 212.021C275.341 215.691 278.991 217.521 283.581 217.521C287.531 217.521 290.441 216.501 292.311 214.471C294.171 212.441 295.331 209.531 295.791 205.751H309.541H309.531Z" fill="black"/>
<path d="M65.7501 126.371V71.9707H78.5501V137.581H25.1701C16.6501 137.581 10.3401 135.741 6.24008 132.071C2.14008 128.401 0.0800781 122.791 0.0800781 115.261C0.0800781 111.101 0.940078 107.421 2.65008 104.231C4.37008 101.051 6.89008 98.5307 10.2301 96.7007C13.5701 94.8607 17.5601 93.8207 22.2201 93.5807L23.6901 104.511C19.5901 104.821 16.6401 105.811 14.8701 107.501C13.0901 109.181 12.2101 111.771 12.2101 115.261C12.2101 119.121 13.2001 121.941 15.2001 123.711C17.1901 125.491 20.3301 126.371 24.6201 126.371H65.7501ZM53.8701 98.5207V102.841H37.5201V98.5207H39.5401V95.7907C39.5401 93.5807 40.1501 91.8807 41.3801 90.6907C42.6001 89.5007 44.3501 88.9007 46.6201 88.9007C48.8901 88.9007 50.4601 89.3707 51.5401 90.3207C52.6101 91.2707 53.3001 92.8807 53.6101 95.1407L49.4801 95.6907C49.3601 94.6507 49.1101 93.9307 48.7401 93.5307C48.3701 93.1307 47.7601 92.9307 46.9001 92.9307C45.0001 92.9307 44.0501 94.0007 44.0501 96.1507V98.5107H53.8801L53.8701 98.5207Z" fill="black"/>
<path d="M200.73 91.9004V126.37H130.45V113.31C130.45 106.14 128.76 100.78 125.4 97.2304C122.03 93.6804 116.89 91.9004 109.96 91.9004C103.41 91.9004 98.2305 93.8004 94.4305 97.6004C90.6305 101.4 88.7305 106.54 88.7305 113.04C88.7305 120.7 91.1005 127.4 95.8505 131.48C100.6 135.55 107.44 137.59 116.39 137.59H118.04V139.07C118.04 144.03 117.42 146.89 116.19 148.53L122.47 158.4C123.54 157.75 124.5 157 125.35 156.14C128.75 152.68 130.45 144.81 130.45 137.58H213.13V91.9004H200.73ZM118.05 126.37H114.19C105.49 126.37 101.14 121.37 101.14 113.03C101.14 109.6 101.88 106.97 103.35 105.13C104.82 103.29 106.96 102.37 109.78 102.37C111.92 102.37 113.58 102.72 114.74 103.43C115.9 104.13 116.74 105.41 117.27 107.24C117.79 109.08 118.05 112.71 118.05 116.44V126.36V126.37Z" fill="black"/>
<path d="M213.13 85.7008V73.3008H200.73V85.7008H213.13Z" fill="black"/>
<path d="M271.781 126.37V119.74C271.781 114.1 270.721 109.94 268.611 107.24C266.501 104.55 263.231 103.2 258.821 103.2C256.001 103.2 252.881 103.75 249.451 104.85L246.511 93.9204C250.671 92.5704 255.121 91.9004 259.831 91.9004C267.671 91.9004 273.691 94.2004 277.891 98.7904C282.081 103.39 284.181 109.97 284.181 118.55V137.58H222.471V126.37H271.781Z" fill="black"/>
<path d="M308.901 68.9794V73.2994H292.551V68.9794H294.571V66.2494C294.571 64.0394 295.181 62.3494 296.411 61.1494C297.631 59.9594 299.381 59.3594 301.651 59.3594C303.921 59.3594 305.491 59.8394 306.571 60.7794C307.641 61.7294 308.331 63.3394 308.641 65.5994L304.511 66.1494C304.391 65.1094 304.141 64.3894 303.771 63.9894C303.401 63.5894 302.791 63.3894 301.931 63.3894C300.031 63.3894 299.081 64.4594 299.081 66.6094V68.9694H308.911L308.901 68.9794Z" fill="black"/>
<path d="M307.16 78.1797H294.76V137.59H307.16V78.1797Z" fill="black"/>
</g>
<defs>
<clipPath id="clip0_2081_245">
<rect width="626" height="288" fill="white"/>
</clipPath>
</defs>
</svg>
