<svg width="693" height="278" viewBox="0 0 693 278" fill="none" xmlns="http://www.w3.org/2000/svg">
<g clip-path="url(#clip0_2081_391)">
<mask id="mask0_2081_391" style="mask-type:luminance" maskUnits="userSpaceOnUse" x="0" y="0" width="693" height="278">
<path d="M692.154 0H0V278H692.154V0Z" fill="white"/>
</mask>
<g mask="url(#mask0_2081_391)">
<path d="M686.727 211.625H650.767L656.704 187.844H584.65L578.727 211.625H543.909V206.743C544.448 204.062 544.908 201.252 545.581 198.249C551.914 172.607 568.75 147.263 597.875 147.263C609.399 147.263 620.85 151.658 619.279 167.595H662.149C663.839 160.156 666.677 147.485 658.584 135.84C649.445 123.182 631.039 118.106 607.17 118.106C590.192 118.106 565.36 120.824 543.909 134.827V5.47672H686.727V211.625ZM602.453 246.466C594.3 247.94 586.175 248.921 578.437 248.921C557.847 248.921 543.527 239.354 543.227 217.033H609.749L602.453 246.466ZM520.155 128.71L520.086 158.258C510.132 172.012 503.955 187.028 501.062 199.124C499.971 203.362 499.202 207.471 498.787 211.625H477.81L495.747 126.513L435.379 126.457L381.348 211.625H377.415V5.47672H520.16V128.71H520.155ZM440.441 211.625H418.967L451.473 160.483L440.441 211.625ZM353.771 126.315H318.046L293.537 211.625H255.651C274.955 204.486 286.701 190.852 290.335 170.617C293.329 154.896 291.906 144.546 285.494 136.803C275.886 125.274 256.6 126.264 239.465 126.264C236.471 126.264 211.128 126.315 211.128 126.315V5.47672H353.771V126.315ZM330.925 211.625L345.959 158.258L346.489 211.625H330.929H330.925ZM227.033 191.335H226.991C225.61 191.409 224.214 191.524 222.62 191.524C220.538 191.524 218.912 191.602 217.374 191.602L208.235 191.524L212.459 175.905L214.458 168.148L219.253 149.981C221.377 149.981 223.459 149.903 225.448 149.903H232.523C244.596 149.903 252.233 150.589 255.011 154.472C257.143 157.383 256.867 162.427 254.352 170.087C250.045 183.288 244.596 189.99 227.033 191.326M187.355 133.864L185.121 141.271L164.698 209.221L163.892 211.611H96.6832L91.4368 200.543L163.892 126.499H117.342L60.6815 187.53L79.0324 126.499H44.7074V5.47672H187.351V133.878L187.355 133.864ZM538.492 0V138.719C533.646 142.542 529.524 146.642 525.687 151.059V0H372.025V126.315H359.294V0H205.61V126.517H192.897V0H39.2076V144.2L0 274.937H34.4863L51.8101 217.033H56.7939L85.3935 274.937H127.065L99.3134 217.033H162.284L144.808 274.937H182.501L199.741 217.199H208.014V217.038H291.915L275.273 274.767H313.269L329.396 217.038H346.494L346.95 274.767H378.829L415.411 217.038H439.368L427.014 274.767H464.425L476.558 217.038H498.193C497.336 234.932 501.91 251.188 513.775 262.132C528.271 275.453 550.528 278 567.009 278C589.551 278 612.951 274.766 636.493 269.456L649.454 217.033H692.158V0H538.497H538.492Z" fill="black"/>
</g>
</g>
<defs>
<clipPath id="clip0_2081_391">
<rect width="693" height="278" fill="white"/>
</clipPath>
</defs>
</svg>
