<svg width="607" height="256" viewBox="0 0 607 256" fill="none" xmlns="http://www.w3.org/2000/svg">
<g clip-path="url(#clip0_2081_307)">
<mask id="mask0_2081_307" style="mask-type:luminance" maskUnits="userSpaceOnUse" x="0" y="0" width="607" height="256">
<path d="M607 0H0V256H607V0Z" fill="white"/>
</mask>
<g mask="url(#mask0_2081_307)">
<path fill-rule="evenodd" clip-rule="evenodd" d="M0 89.2176C0 88.1951 0.405428 87.2117 1.13052 86.4859C1.85561 85.76 2.8341 85.3541 3.85936 85.3541H43.1508C50.0314 84.8273 56.8535 86.958 62.2137 91.3132C64.4163 93.5493 66.1199 96.2302 67.2153 99.1727C68.3107 102.115 68.7707 105.257 68.5719 108.394C68.685 112.328 67.7962 116.222 65.9912 119.719C64.3461 122.782 61.8395 125.292 58.7793 126.939C62.6036 127.988 65.9912 130.24 68.4433 133.362C70.8486 137.026 72.0103 141.37 71.753 145.744C71.9986 149.163 71.5074 152.597 70.3067 155.805C69.106 159.017 67.2309 161.932 64.8022 164.347C59.1418 168.898 51.9728 171.149 44.7296 170.654H0V89.2137V89.2176ZM39.845 120.718C47.8756 120.718 51.8909 117.097 51.8909 109.861C52.0273 108.308 51.8324 106.743 51.3178 105.272C50.8033 103.801 49.9846 102.451 48.9126 101.319C45.8836 99.2 42.1996 98.2361 38.5235 98.6029H17.8739V120.718H39.845ZM40.6364 157.53C44.2034 157.846 47.7626 156.831 50.6317 154.681C51.7934 153.362 52.6667 151.817 53.2046 150.139C53.7387 148.464 53.9219 146.697 53.7426 144.948C53.8791 143.372 53.6569 141.783 53.0955 140.304C52.5341 138.825 51.6453 137.491 50.4992 136.406C47.2246 134.279 43.3301 133.315 39.4435 133.67H18.0026V157.483L40.6364 157.53ZM92.3324 85.358H149.626V99.2624H106.343V121.116H144.73V134.888H106.343V156.87H149.626V170.661H88.4535V89.241C88.4535 88.7298 88.551 88.2263 88.742 87.7541C88.9369 87.2819 89.2215 86.8527 89.5801 86.4937C89.9427 86.1346 90.3676 85.8459 90.8393 85.6546C91.311 85.4595 91.8178 85.362 92.3246 85.3659L92.3324 85.358ZM231.028 85.358H173.734C173.227 85.358 172.724 85.4595 172.252 85.6546C171.785 85.8498 171.36 86.1346 171.001 86.4976C170.642 86.8566 170.358 87.2859 170.167 87.758C169.976 88.2302 169.878 88.7337 169.878 89.241V170.661H231.032V156.87H187.748V134.888H226.131V121.116H187.748V99.2624H231.028V85.358ZM278.061 85.358H292.341C293.125 85.358 293.885 85.5961 294.528 86.041C295.171 86.4859 295.666 87.1141 295.943 87.8478L327.43 170.642H308.901L300.804 150.115H269.423L261.482 170.642H242.82L274.432 87.84C274.713 87.1063 275.212 86.4741 275.859 86.0293C276.506 85.5844 277.274 85.3502 278.061 85.358ZM298.173 136.343L285.071 102.049L272.097 136.343H298.173ZM357.108 85.358H339.23V170.661H357.108V134.907H394.302V170.661H412.176V85.358H394.302V121.112H357.108V85.358Z" fill="black"/>
<path d="M520.614 141.306V153.669C534.344 147.367 546.569 138.18 556.447 126.735C557.987 127.554 559.496 128.401 560.977 129.267C568.715 133.572 575.873 138.852 582.282 144.975C576.192 152.889 569.066 159.944 561.106 165.962C546.97 176.502 531.478 185.084 515.047 191.468V109.587C517.214 110.563 519.429 111.429 521.686 112.182C528.34 114.387 534.882 116.818 541.146 119.484C542.008 118.543 542.787 117.615 543.485 116.686C544.967 114.813 546.144 112.717 546.966 110.473L547.134 109.966C540.211 106.973 532.964 104.249 525.541 101.798C513.585 97.9192 503.169 90.3485 495.777 80.1787C488.386 70.005 484.398 57.7553 484.39 45.1738V12.9007C511.952 19.9485 537.961 32.0811 561.082 48.6782C581.221 64.1787 595.739 83.9407 595.93 107.304C595.844 115.269 594.117 123.133 590.87 130.403C593.485 132.799 595.111 134.458 595.111 134.458C596.53 135.937 597.859 137.435 599.115 138.957C604.171 129.166 606.869 118.325 606.989 107.3C606.755 79.1914 589.665 55.7728 565.238 37.7904C539.548 20.0109 510.731 7.246 480.313 0.166968C479.482 -0.0398612 478.613 -0.0515686 477.775 0.127944C476.937 0.307456 476.149 0.674285 475.475 1.20502C474.8 1.73185 474.254 2.41087 473.88 3.17965C473.506 3.95234 473.311 4.79917 473.311 5.6538V45.1738C473.311 56.6353 476.102 67.925 481.447 78.0597C486.792 88.1982 494.522 96.8772 503.976 103.343V150.426C494.53 156.889 486.799 165.556 481.459 175.687C476.118 185.814 473.327 197.096 473.323 208.549V250.329C473.323 251.16 473.498 251.983 473.853 252.74C474.204 253.494 474.718 254.161 475.358 254.696C475.997 255.226 476.746 255.613 477.552 255.819C478.359 256.03 479.198 256.058 480.016 255.901C509.375 250.329 541.088 240.869 565.413 227.019C589.844 213.115 606.775 194.738 607.009 173.014C606.689 162.493 602.892 152.378 596.222 144.245C593.825 141.158 591.189 138.266 588.347 135.585C581.381 129.142 573.67 123.566 565.371 118.98C564.306 118.379 563.23 117.786 562.143 117.201C563.511 114.024 564.232 110.61 564.267 107.152C564.236 89.8255 544.417 71.0236 511.881 56.725C511.02 56.3504 510.08 56.1943 509.149 56.2724C508.213 56.3504 507.312 56.6587 506.525 57.1738C505.741 57.6889 505.098 58.3875 504.65 59.2148C504.206 60.0421 503.972 60.9631 503.972 61.9036V81.4821C507.238 85.0763 510.969 88.2138 515.066 90.8167V70.5006C539.513 82.6606 553.114 96.7094 553.138 107.137C553.122 107.14 555.516 122.594 520.618 141.306H520.614ZM561.008 216.729C536.987 229.54 511.164 238.633 484.417 243.687V208.538C484.406 200.221 486.144 191.995 489.513 184.393C492.885 176.791 497.812 169.985 503.979 164.413V199.535C503.979 200.444 504.202 201.338 504.623 202.145C505.044 202.949 505.652 203.644 506.396 204.163C507.145 204.682 508.003 205.018 508.903 205.131C509.804 205.248 510.72 205.146 511.577 204.834C530.66 198.009 548.713 188.58 565.226 176.818C574.348 170.251 582.547 162.493 589.61 153.751C593.567 159.406 595.774 166.102 595.953 173.006C595.762 190.485 581.147 205.119 561.008 216.725V216.729Z" fill="black"/>
</g>
</g>
<defs>
<clipPath id="clip0_2081_307">
<rect width="607" height="256" fill="white"/>
</clipPath>
</defs>
</svg>
