<svg width="485" height="485" viewBox="0 0 485 485" fill="none" xmlns="http://www.w3.org/2000/svg">
<path fill-rule="evenodd" clip-rule="evenodd" d="M95.78 278.28C95.6823 278.069 95.5532 277.874 95.3971 277.702C94.827 277.106 94.0655 276.655 93.355 276.238C93.0888 276.079 92.8193 275.926 92.5467 275.779C91.2618 275.077 89.8792 274.549 88.5475 273.937C87.2542 273.345 85.9651 272.703 84.8973 271.767C84.1655 271.129 83.1615 270.159 82.9318 269.214C82.6084 267.904 83.7486 266.436 84.2591 265.283C85.6205 262.22 86.9309 258.923 88.7475 256.09C89.1687 257.825 90.2663 258.591 91.3597 259.506C93.9634 261.676 101.57 261.561 101.124 265.947C100.911 268.015 99.9621 270.099 99.2473 272.039C98.8176 273.188 98.1667 274.251 97.6477 275.366C97.469 275.749 96.1587 279.123 96.4565 279.391C96.1246 279.089 95.9715 278.672 95.7757 278.285M450.438 323.815L464.154 342.93H17.8184L29.1818 324.185L450.438 323.815Z" fill="black"/>
<mask id="mask0_2081_397" style="mask-type:luminance" maskUnits="userSpaceOnUse" x="12" y="17" width="456" height="455">
<path d="M12.7637 471.437H467.17V17.0176H12.7637V471.437Z" fill="white"/>
</mask>
<g mask="url(#mask0_2081_397)">
<path fill-rule="evenodd" clip-rule="evenodd" d="M147.398 425.634H348.529V422.984H147.398V425.634ZM364.946 436.075C365.342 436.194 365.712 435.59 365.797 435.334C365.964 434.804 365.964 434.235 365.797 433.705C365.491 432.833 363.925 432.267 363.075 432.152C362.652 432.119 362.228 432.186 361.837 432.347C361.445 432.508 361.097 432.759 360.82 433.079C359.118 435.122 361.79 437.189 363.096 437.789C363.777 438.095 364.232 438.797 364.432 439.465C364.53 439.793 364.568 440.214 364.393 440.525C364.147 440.954 363.623 440.937 363.172 440.916C362.415 440.874 361.415 440.925 360.705 440.618C360.428 440.491 360.424 441.333 361.003 441.784C360.62 442.116 360.156 442.848 360.224 444.422C360.267 445.379 360.262 446.336 360.267 447.289C360.275 448.825 360.279 450.361 360.275 451.901C360.267 453.569 360.271 455.241 360.258 456.913C360.25 458.261 360.241 459.614 360.241 460.963C360.241 461.571 360.156 462.213 360.245 462.809C360.365 463.583 360.833 464.319 361.666 464.566C362.036 464.673 363.364 464.851 363.657 464.507C363.925 464.192 363.36 463.885 363.355 463.609L363.334 461.848L363.275 457.359L363.206 451.922C363.189 450.212 363.164 448.506 363.143 446.8L363.1 443.579C363.096 443.065 363.794 442.618 363.598 442.09C364.47 441.865 365.244 441.337 365.555 440.546C365.679 440.195 365.734 439.824 365.717 439.453C365.691 437.878 364.589 436.585 363.236 435.811C363.07 435.721 362.875 435.641 362.726 435.53C362.13 435.062 361.534 434.041 362.109 433.352C362.675 432.671 363.998 433.194 364.568 433.607C364.687 433.692 365.159 434.135 365.006 434.33C365.006 434.33 363.896 435.747 364.946 436.075ZM318.603 463.171C317.072 463.171 317.463 461.648 317.463 461.648L317.323 454.96C319.122 450.944 323.156 451.68 325.772 451.96C328.788 452.288 329.359 455.117 329.929 459.469C330.197 461.541 329.878 462.541 329.461 463.022C325.291 462.499 319.607 463.171 318.603 463.171ZM332.29 463.698C332.473 462.009 332.532 456.066 331.294 453.271C329.869 450.059 325.147 449.676 321.45 450.003C319.467 450.174 318.097 450.756 317.246 451.263L317.238 450.982C317.238 450.982 317.068 447.336 317.008 445.268C317.004 444.907 317.021 442.622 317.638 442.656L315.817 442.545C314.056 442.767 314.566 444.073 314.566 444.073L314.906 462.843L311.205 463.06C311.214 463.06 311.158 461.622 311.154 461.537L310.92 455.002C310.89 454.156 310.784 453.275 310.848 452.428C310.907 451.675 311.265 450.854 311.265 450.165C311.265 449.897 308.363 450.437 308.363 450.437L308.533 463.286H306.598C306.087 461.899 303.624 457.487 302.13 454.862C301.237 453.288 300.531 452.126 298.799 451.263C294.524 449.136 290.137 452.156 289.359 454.9C288.448 458.112 290.38 460.941 290.38 460.941C290.669 459.797 293.23 459.852 293.23 459.852C298.574 459.691 298.748 463.226 298.748 463.226L290.154 463.388C283.556 463.826 282.42 461.592 281.901 458.163C281.39 454.739 282.93 453.215 284.466 452.071C286.002 450.931 284.751 451.093 284.751 451.093C278.378 453.645 279.629 458.819 279.629 458.819C281.05 467.144 290.154 465.132 290.154 465.132L301.765 464.966C302.445 462.52 298.233 457.734 295.051 457.84C291.541 457.959 290.724 457.895 291.58 455.011C292.256 452.722 294.864 452.628 296.71 452.926C297.838 453.113 298.408 453.42 299.093 454.296C301.416 457.253 305.572 465.132 305.572 465.132C306.317 464.804 329.014 464.966 330.839 464.694C332.66 464.422 333.911 465.132 333.911 465.132C333.677 464.507 333.09 464.043 332.29 463.698ZM343.755 462.843C340.454 462.792 337.076 457.436 340.114 453.05C342.671 449.348 346.997 452.726 347.448 456.423C347.665 458.18 347.793 460.571 347.746 462.733C346.287 462.809 344.845 462.86 343.755 462.843ZM356.268 463.66L356.404 452.667C356.404 452.667 357.008 449.136 355.817 449.297C354.621 449.459 353.766 449.565 353.766 449.565L353.711 462.303C353.711 462.303 352.226 462.435 350.311 462.571L350.239 456.7C350.239 456.7 350.184 449.187 343.015 449.676C335.846 450.165 334.706 457.674 337.097 461.163C339.484 464.639 343.351 464.694 347.167 464.481C347.329 464.468 347.495 464.46 347.661 464.456C347.533 466.081 347.274 467.378 346.827 467.855C345.691 469.046 340.569 472.696 334.021 465.294C334.021 465.294 334.766 469.378 338.463 470.739C342.16 472.101 349.044 471.99 350.354 465.728L350.337 464.409C353.613 464.426 356.952 464.638 356.952 464.638C356.952 464.638 357.118 463.937 356.268 463.66Z" fill="black"/>
</g>
<mask id="mask1_2081_397" style="mask-type:luminance" maskUnits="userSpaceOnUse" x="12" y="17" width="456" height="455">
<path d="M12.7637 471.437H467.17V17.0176H12.7637V471.437Z" fill="white"/>
</mask>
<g mask="url(#mask1_2081_397)">
<path fill-rule="evenodd" clip-rule="evenodd" d="M325.435 446.081L323.818 444.473L322.18 445.979L323.797 447.591L325.435 446.081ZM307.388 468.782L309.005 470.39L310.647 468.884L309.03 467.272L307.388 468.782ZM353.416 468.455L355.033 470.063L356.675 468.557L355.058 466.944L353.416 468.455ZM293.621 468.944L295.237 470.552L296.875 469.046L295.259 467.434L293.621 468.944ZM290.034 468.889L291.651 470.497L293.293 468.991L291.676 467.383L290.034 468.889ZM141.224 456.228L139.14 450.454C138.706 449.148 138.395 447.953 138.08 446.796H137.987C137.695 448.019 137.353 449.229 136.961 450.425L134.907 456.228H141.224ZM134.349 458.253L132.171 464.562H129.367L136.493 444.507H139.761L146.921 464.562H144.028L141.786 458.253H134.349ZM152.554 458.789C152.554 459.116 152.584 459.444 152.643 459.742C152.898 460.632 153.438 461.414 154.18 461.968C154.923 462.521 155.827 462.815 156.753 462.805C159.646 462.805 161.326 460.576 161.326 457.27C161.326 454.356 159.773 451.884 156.846 451.884C154.979 451.884 153.239 453.135 152.707 455.1C152.605 455.457 152.553 455.827 152.554 456.198V458.789ZM149.814 443.43H152.554V452.45H152.613C153.579 450.842 155.323 449.829 157.748 449.829C161.484 449.829 164.096 452.807 164.096 457.151C164.096 462.333 160.675 464.89 157.314 464.89C155.136 464.89 153.422 464.085 152.273 462.184H152.209L152.056 464.566H149.691C149.78 463.579 149.814 462.12 149.814 460.844V443.43ZM180.122 460.635C180.122 462.12 180.156 463.43 180.25 464.562H177.821L177.663 462.213H177.604C176.919 463.371 175.298 464.894 172.626 464.894C170.256 464.894 167.427 463.609 167.427 458.58V450.157H170.167V458.104C170.167 460.844 171.069 462.716 173.528 462.716C174.299 462.712 175.052 462.482 175.694 462.054C176.335 461.626 176.837 461.019 177.136 460.308C177.306 459.882 177.39 459.426 177.382 458.967V450.161H180.122V460.635ZM194.064 462.537C194.745 462.656 195.744 462.656 196.804 462.656C202.59 462.69 205.738 459.563 205.738 454.147C205.763 449.357 202.964 446.404 197.238 446.404C195.838 446.404 194.779 446.528 194.064 446.676V462.537ZM191.324 444.771C193.241 444.496 195.174 444.357 197.11 444.354C201.003 444.354 203.772 445.187 205.61 446.821C207.508 448.459 208.597 450.812 208.597 454.054C208.597 457.329 207.508 460.01 205.576 461.852C203.585 463.732 200.352 464.745 196.272 464.745C194.315 464.745 192.724 464.681 191.324 464.502V444.771ZM212.051 443.435H214.791V452.42H214.851C215.285 451.675 215.97 450.99 216.808 450.573C217.616 450.097 218.582 449.829 219.611 449.829C221.637 449.829 224.87 451.02 224.87 455.994V464.562H222.134V456.291C222.134 453.939 221.228 452.003 218.646 452.003C217.839 452.013 217.055 452.269 216.399 452.737C215.742 453.206 215.245 453.864 214.974 454.624C214.827 455.022 214.765 455.446 214.791 455.87V464.562H212.051V443.43V443.435ZM237.259 457.21C234.272 457.151 230.877 457.657 230.877 460.456C230.877 462.184 232.06 462.954 233.43 462.954C235.421 462.954 236.697 461.763 237.131 460.546C237.22 460.277 237.263 459.995 237.259 459.712V457.21ZM239.935 461.112C239.935 462.358 239.998 463.579 240.152 464.562H237.693L237.442 462.745H237.348C236.54 463.877 234.893 464.89 232.745 464.89C229.694 464.89 228.137 462.839 228.137 460.754C228.137 457.27 231.371 455.368 237.195 455.394V455.096C237.195 453.905 236.854 451.735 233.77 451.765C232.341 451.765 230.877 452.152 229.818 452.837L229.197 451.08C230.443 450.335 232.277 449.829 234.174 449.829C238.811 449.829 239.935 452.837 239.935 455.726V461.112ZM247.061 458.789C247.061 459.116 247.086 459.444 247.15 459.742C247.405 460.632 247.945 461.414 248.687 461.968C249.43 462.521 250.334 462.815 251.26 462.805C254.153 462.805 255.833 460.576 255.833 457.27C255.833 454.356 254.276 451.884 251.353 451.884C249.481 451.884 247.741 453.135 247.214 455.1C247.112 455.457 247.06 455.827 247.061 456.198V458.789ZM244.321 443.43H247.061V452.45H247.12C248.086 450.842 249.83 449.829 252.255 449.829C255.991 449.829 258.603 452.807 258.603 457.151C258.603 462.333 255.182 464.89 251.817 464.89C249.643 464.89 247.929 464.085 246.78 462.184H246.716L246.563 464.566H244.193C244.289 463.328 244.331 462.086 244.321 460.844V443.43ZM262.113 464.562H265.427V450.157H262.108L262.113 464.562ZM263.691 447.506C262.449 447.506 261.623 446.736 261.623 445.813C261.623 444.89 262.487 444.145 263.768 444.145C265.048 444.145 265.878 444.89 265.878 445.813C265.878 446.736 265.048 447.506 263.729 447.506H263.691ZM140.688 288.949C141.139 302.236 124.722 301.398 120.293 310.817C119.676 297.365 136.898 299.002 140.688 288.949ZM78.8768 355.462L58.3154 399.159C63.4675 401.129 65.1394 395.705 66.9433 391.995C70.6548 384.292 74.2516 376.534 77.7324 368.723L83.8417 382.41C79.7022 381.776 73.5121 381.686 72.023 386.366C72.023 386.366 78.3833 385.005 85.3137 385.703L88.9087 393.752C89.9468 396.083 90.453 398.113 93.0354 399.227C96.8133 400.857 101.718 399.938 101.718 399.938C98.2939 399.627 78.8726 355.462 78.8726 355.462M338.522 355.462L317.964 399.159C323.112 401.129 324.788 395.705 326.592 391.995C330.336 384.303 333.876 376.517 337.381 368.723L343.491 382.41C339.351 381.776 333.161 381.686 331.672 386.366C331.672 386.366 338.032 385.005 344.963 385.703L348.558 393.752C349.596 396.083 350.102 398.113 352.684 399.227C356.462 400.857 361.368 399.938 361.368 399.938C357.943 399.627 338.522 355.462 338.522 355.462ZM328.843 356.501C323.691 354.526 322.014 359.955 320.211 363.661C316.499 371.364 312.902 379.122 309.422 386.932L305.482 378.109L300.066 365.975L298.249 361.904C297.207 359.576 296.705 357.543 294.123 356.428C290.345 354.799 285.435 355.718 285.435 355.718C286.359 355.803 288.439 359.066 290.987 363.788L290.013 365.975L284.593 378.109L280.658 386.932C277.175 379.122 273.577 371.364 269.864 363.661C268.06 359.955 266.388 354.526 261.236 356.501L281.798 400.193C281.798 400.193 288.728 384.435 295.037 371.676C301.351 384.435 308.277 400.197 308.277 400.197L328.843 356.501ZM205.232 355.462L184.674 399.159C189.822 401.129 191.498 395.705 193.302 391.995C197.012 384.291 200.609 376.533 204.091 368.723L210.201 382.41C206.061 381.776 199.863 381.686 198.382 386.362C198.382 386.362 204.738 385.001 211.673 385.703L215.263 393.752C216.306 396.083 216.808 398.113 219.39 399.227C223.168 400.857 228.078 399.938 228.078 399.938C224.653 399.627 205.232 355.462 205.232 355.462ZM399.219 355.462L378.657 399.159C383.809 401.129 385.486 395.705 387.29 391.995C391 384.291 394.597 376.533 398.079 368.723L404.188 382.41C400.048 381.776 393.854 381.686 392.365 386.362C392.365 386.362 398.725 385.001 405.66 385.703L409.255 393.752C410.289 396.083 410.795 398.113 413.382 399.227C417.155 400.857 422.065 399.938 422.065 399.938C418.636 399.627 399.219 355.462 399.219 355.462ZM250.677 397.075C250.677 397.075 243.572 397.5 240.722 396.39C240.764 396.219 240.82 396.058 240.849 395.866C241.5 391.152 241.181 366.566 241.105 361.448C241.092 360.614 241.16 359.819 240.692 359.07C239.884 357.794 237.48 356.245 230.443 357.122C232.864 356.824 233.157 361.299 233.242 362.763C233.489 367.23 233.272 371.757 233.294 376.228C233.323 381.857 233.366 387.494 233.379 393.122C233.379 394.279 233.587 395.445 233.472 396.602C233.434 396.972 232.911 399.542 232.153 399.376C232.153 399.376 236.961 400.427 239.445 398.415C240.101 399.317 241.381 400.159 243.904 400.116C249.29 400.04 259.407 401.448 259.326 394.969C259.326 394.969 254.919 397.466 250.677 397.075ZM428.502 369.821L459.01 396.666C459.01 396.666 463.579 400.878 467.17 400.099C467.17 400.099 463.907 399.474 464.068 392.454C464.234 385.43 464.234 357.964 464.234 357.964C464.234 357.964 464.068 357.028 465.375 357.181C465.375 357.181 461.133 354.684 460.154 359.836C459.176 364.984 460.316 386.992 460.316 386.992L433.165 363.695C429.591 360.632 426.247 357.02 421.154 356.56C421.154 356.56 424.252 358.275 424.252 364.516V396.977C424.252 396.977 424.009 399.163 423.439 399.397C423.439 399.397 428.008 400.333 428.578 396.041C429.148 391.748 428.502 369.821 428.502 369.821ZM387.762 357.39C387.762 357.39 356.505 357.39 352.433 357.466C348.366 357.547 348.681 364.256 348.681 364.256C348.66 363.831 350.561 362.699 350.927 362.469C351.523 362.087 352.144 361.746 352.808 361.495C354.216 360.955 355.594 361.057 357.083 361.07L363.797 361.104C364.648 362.355 364.801 364.588 364.86 365.52C365.107 369.719 364.894 373.973 364.911 378.172C364.941 383.469 364.98 388.766 364.997 394.054C364.997 395.143 365.205 396.236 365.086 397.321C365.052 397.674 364.529 400.091 363.776 399.934C363.776 399.934 371.727 401.58 372.463 396.632C373.122 392.203 372.799 369.093 372.718 364.286C372.71 363.503 372.778 362.754 372.306 362.052C372.023 361.653 371.657 361.319 371.234 361.074C373.548 360.946 379.074 360.683 383.107 360.742C388.332 360.823 387.762 357.39 387.762 357.39ZM101.484 391.527C101.484 391.527 109.589 400.716 118.132 395.305C119.616 394.369 120.374 393.454 120.922 391.816C121.744 389.374 121.914 385.409 116.255 382.627C107.521 378.338 102.79 374.28 102.467 368.974C102.139 363.665 106.381 352.744 121.229 356.956C121.229 356.956 129.716 358.913 128.98 366.166C128.248 373.42 121.637 372.484 120.416 369.753C120.416 369.753 119.438 366.711 121.31 366.086C121.31 366.086 122.782 368.272 125.394 366.554C128.002 364.839 125.555 360.389 120.008 358.908C114.46 357.424 104.258 362.886 112.337 370.455L122.697 376.309C122.697 376.309 128.653 380.602 128.329 388.013C128.002 395.428 120.331 399.172 116.17 400.027C112.009 400.891 101.731 398.47 101.484 391.527ZM167.427 394.833C163.237 391.259 161.428 386.315 157.936 382.282C157.374 381.629 156.759 381.025 156.098 380.474C160.871 377.879 166.734 371.804 164.968 366.158C163.564 361.67 159.842 359.3 155.34 358.138C151.256 357.088 146.513 356.968 142.313 356.977C141.105 356.977 138.51 357.207 136.485 357.385C135.302 357.385 133.954 357.471 132.392 357.662C134.817 357.364 135.111 361.835 135.192 363.299C135.443 367.766 135.226 372.293 135.247 376.764C135.272 382.397 135.319 388.03 135.328 393.663C135.328 394.816 135.541 395.981 135.421 397.138C135.387 397.513 134.864 400.082 134.107 399.917C134.107 399.917 142.062 401.669 142.794 396.402C143.454 391.689 143.13 367.102 143.054 361.984C143.049 361.461 142.918 360.951 142.798 360.461C143.169 360.495 143.666 360.495 143.862 360.483C144.926 360.402 146.015 360.406 147.083 360.44C150.678 360.555 154.4 361.895 156.196 365.052C159.271 370.446 157.046 377.07 151.414 379.857C149.895 380.606 147.406 381.886 145.683 381.942C145.683 381.942 146.853 383.133 149.925 382.708C150.741 383.316 151.571 384.324 152.405 385.601C152.758 386.149 154.8 390.068 155.468 391.272C156.523 393.161 157.582 394.76 158.65 395.892C165.057 402.678 176.987 398.908 176.987 398.908C173.319 398.73 170.116 397.126 167.427 394.833ZM21.4937 377.619C21.4937 367.877 28.9261 359.981 38.0943 359.981C47.2625 359.981 54.6949 367.877 54.6949 377.624C54.6889 378.619 54.6035 379.612 54.4396 380.593L54.2993 380.465C51.3765 378.143 45.6161 377.921 42.3955 379.708C35.9714 383.282 35.0056 390.429 38.3113 395.249C38.2389 395.249 38.1666 395.266 38.0943 395.266C28.9261 395.266 21.4937 387.362 21.4937 377.619ZM43.4293 394.318C41.7701 391.914 41.3744 389.076 43.6207 386.383C47.02 382.308 49.9725 387.051 49.479 390.442C47.7724 392.163 45.7065 393.489 43.4293 394.318ZM57.1965 377.241C57.1931 371.351 54.8507 365.705 50.6844 361.543C46.5182 357.38 40.8693 355.043 34.9801 355.046C29.0909 355.043 23.442 357.38 19.2757 361.543C15.1095 365.705 12.7671 371.351 12.7637 377.241C12.7644 380.732 13.5885 384.175 15.1691 387.288C16.7496 390.402 19.0421 393.099 21.8604 395.16C24.6786 397.222 27.9433 398.59 31.3893 399.153C34.8353 399.716 38.3656 399.459 41.6935 398.402C42.3742 398.806 43.0932 399.168 43.893 399.44C47.0285 400.504 50.0193 399.802 53.108 400.197C50.7 399.887 47.8496 398.576 45.6458 396.713C49.1423 394.804 52.06 391.988 54.0925 388.561C56.125 385.135 57.1972 381.224 57.1965 377.241ZM306.563 294.038C305.95 296.577 305.074 299.245 302.363 300.381C299.99 301.381 297.628 300.07 296.492 297.943C292.493 290.468 298.466 279.386 299.658 273.863C296.352 278.441 293.476 287.031 293.042 295.042C292.732 300.811 294.17 307.873 299.241 307.873C300.56 307.873 301.781 307.426 302.746 306.575C304.631 304.916 305.878 302.01 306.494 299.283C306.733 298.228 306.392 294.74 306.563 294.038ZM408.77 201.871C395.607 189.814 376.662 178.301 357.041 169.329C337.045 160.186 316.42 153.617 295.386 146.955C284.776 143.594 271.855 138.697 261.428 135.766C261.887 136.281 288.698 157.336 290.498 158.004C305.835 163.734 323.142 168.648 338.717 175.166C360.849 184.432 381.963 195.638 400.185 211.115C430.991 237.293 446.766 272.421 448.361 311.681C459.72 271.583 438.576 229.184 408.77 201.871ZM358.751 239.301C357.831 240.772 357.012 242.304 356.301 243.887C355.62 245.355 355.071 246.878 354.331 248.316C353.676 249.588 352.565 250.924 352.931 252.425C353.165 253.37 354.169 254.34 354.901 254.978C355.969 255.91 357.254 256.552 358.547 257.148C359.883 257.76 361.265 258.288 362.546 258.986C363.048 259.262 365.881 260.828 365.711 261.526C364.852 265.027 359.938 269.013 359.734 272.438C359.287 279.798 370.055 279.594 373.254 284.861C374.403 280.687 379.461 276.033 378.908 271.8C378.257 266.814 367.166 267.265 366.839 261.504C366.732 259.624 368.519 257.212 369.247 255.25C369.966 253.31 370.914 251.226 371.127 249.158C371.574 244.768 363.963 244.887 361.363 242.717C360.27 241.802 359.168 241.036 358.751 239.301Z" fill="black"/>
</g>
<mask id="mask2_2081_397" style="mask-type:luminance" maskUnits="userSpaceOnUse" x="12" y="17" width="456" height="455">
<path d="M12.7637 471.437H467.17V17.0176H12.7637V471.437Z" fill="white"/>
</mask>
<g mask="url(#mask2_2081_397)">
<path fill-rule="evenodd" clip-rule="evenodd" d="M329.766 228.069C335.458 220.564 343.129 213.221 354.692 211.205C355.092 211.171 355.488 211.145 355.543 211.46C355.016 222.372 349.017 231.307 343.18 238.292C337.067 245.601 329.366 253.234 319.679 256.203C319.602 244.904 324.023 235.642 329.766 228.069ZM391.935 232.251C387.868 231.894 385.222 233.259 383.852 235.629C382.18 238.531 380.755 251.583 382.014 255.008C383.401 258.769 389.072 260.215 393.054 258.828C396.522 257.62 398.045 254.978 399.061 250.651C402.61 253.936 404.294 258.245 404.294 264.465C404.294 266.35 402.873 269.954 401.75 271.825C396.326 280.875 384.545 291.608 371.612 294.706C347.494 300.483 330.762 284.091 322.5 270.124C335.539 263.121 345.797 252.043 352.446 238.114C357.709 227.091 361.125 211.817 357.211 197.455C350.391 196.591 344.108 200.062 339.636 203.164C327.596 211.503 318.849 224.976 317.139 242.283C317.088 242.794 317.02 243.747 316.931 244.929C316.548 247.967 316.08 252.204 315.952 255.965C315.892 256.403 315.829 256.79 315.765 257.088C305.52 255.119 308.098 240.437 307.894 230.371C306.014 231.12 298.888 236.991 296.837 238.641C293.293 241.492 289.06 244.163 286.354 247.712C281.649 253.876 282.053 264.21 280.407 272.276C276.778 290.038 262.879 297.977 247.597 304.469C244.844 305.635 241.896 307.056 239.045 307.962C238.288 308.2 234.451 309.69 234.842 309.69C246.959 309.655 261.19 310.366 268.762 306.35C276.088 302.466 279.675 294.165 281.534 285.686C282.866 279.59 282.598 272.855 284.78 266.546C286.482 261.632 290.549 258.207 293.812 255.093C297.301 251.753 301.253 248.414 305.146 246.274C304.312 257.531 306.167 270.638 317.301 271.808C317.807 275.382 318.534 278.832 319.777 281.402C321.381 285.524 323.708 289.328 326.648 292.634C331.327 298.007 337.156 302.878 343.699 306.043C349.923 309.051 357.207 310.834 364.631 310.153C381.121 308.634 391.518 298.939 399.006 288.269C405.149 279.522 409.017 264.989 407.472 249.954C406.579 241.232 401.006 233.051 391.935 232.251Z" fill="black"/>
</g>
<mask id="mask3_2081_397" style="mask-type:luminance" maskUnits="userSpaceOnUse" x="12" y="17" width="456" height="455">
<path d="M12.7637 471.437H467.17V17.0176H12.7637V471.437Z" fill="white"/>
</mask>
<g mask="url(#mask3_2081_397)">
<path fill-rule="evenodd" clip-rule="evenodd" d="M387.04 211.928C383.253 221.981 366.023 220.343 366.644 233.796C371.073 224.376 387.491 225.214 387.04 211.928ZM257.417 214.166C262.85 202.607 282.986 203.64 282.433 187.338C277.783 199.675 256.66 197.663 257.417 214.166ZM138.737 237.786C138.133 238.305 134.525 241.058 134.559 241.33C134.576 241.458 135.835 241.266 136.184 241.177C144.165 239.101 151.9 234.893 151.713 226.061C151.7 225.329 151.27 223.53 150.989 223.53C149.419 229.018 142.651 234.446 138.737 237.786Z" fill="black"/>
</g>
<mask id="mask4_2081_397" style="mask-type:luminance" maskUnits="userSpaceOnUse" x="12" y="17" width="456" height="455">
<path d="M12.7637 471.437H467.17V17.0176H12.7637V471.437Z" fill="white"/>
</mask>
<g mask="url(#mask4_2081_397)">
<path fill-rule="evenodd" clip-rule="evenodd" d="M169.605 191.358C170.712 192.196 171.507 193.328 172.124 194.545C172.541 195.353 173.885 197.684 173.647 198.595C175.476 191.588 172.026 184.474 165.751 184.24C158.506 183.972 153.532 191.8 153.341 199.42C153.111 208.695 159.816 214.502 158.701 223.16C156.613 216.918 152.311 212.847 146.853 209.911C145.972 209.435 145.279 215.357 145.279 215.765C145.236 218.339 145.972 218.812 148.372 219.314C148.933 219.428 149.491 219.505 150.065 219.471C150.282 219.458 151.911 219.003 151.928 219.016C154.78 221.845 156.829 225.38 157.868 229.26C157.957 229.609 158.616 232.651 158.978 232.817C160.539 228.571 162.16 224.917 161.518 219.016C161.237 216.416 160.31 213.689 159.591 211.179C158.399 207.01 156.289 202.662 156.264 198.276C156.225 192.03 164.326 187.342 169.605 191.358ZM426.779 267.558C420.963 267.341 416.964 273.629 416.811 279.751C416.628 287.197 422.014 291.864 421.116 298.815C419.44 293.808 415.985 290.536 411.603 288.175C410.893 287.792 410.336 292.549 410.331 292.88C410.302 294.948 410.893 295.327 412.82 295.731C413.271 295.824 413.718 295.884 414.182 295.859C414.356 295.846 415.671 295.476 415.679 295.493C417.764 297.496 419.368 300.245 420.21 303.474C420.346 303.989 420.708 306.29 421.346 306.58C422.592 303.168 423.899 300.232 423.384 295.493C423.154 293.404 422.414 291.213 421.835 289.196C420.874 285.848 419.18 282.355 419.159 278.832C419.129 273.812 425.639 270.051 429.88 273.272C430.765 273.948 431.403 274.859 431.905 275.833C432.237 276.484 433.313 278.356 433.126 279.083C434.594 273.459 431.82 267.75 426.779 267.558ZM232.107 267.58C234.221 263.423 236.778 264.797 236.778 264.797C235.642 268.66 233.081 271.489 230.371 273.493C230.591 271.434 231.179 269.431 232.107 267.58ZM228.644 274.659C224.9 276.965 221.373 277.816 221.373 277.816C221.373 277.816 225.087 279.939 230.043 277.641C235 275.344 238.586 267.558 238.024 262.632C237.471 257.705 232.902 260.109 231.158 264.802C230.991 265.257 230.835 265.717 230.69 266.18C230.281 255.884 225.083 258.479 224.521 260.279C223.925 262.198 225.18 266.308 225.18 266.308C225.095 265.265 225.67 262.411 227.316 262.713C228.835 262.993 229.741 268.613 229.422 270.179C229.073 271.877 228.878 273.429 228.644 274.659ZM334.944 193.328C333.642 196.463 327.72 197.876 326.813 193.966C326.673 193.345 327.12 192.243 327.52 191.192C327.928 190.129 328.285 189.107 327.932 188.682C329.736 190.843 333.497 190.754 334.944 193.328ZM329.864 179.884C328.005 183.994 323.882 192.307 325.41 198.399C325.826 200.075 327.562 201.743 329.29 202.088C331.374 202.509 333.118 200.871 334.335 199.433C336.228 197.199 338.092 191.396 336.752 188.427C335.646 185.985 330.753 185.84 329.962 183.768C329.358 182.194 330.702 181.335 329.864 179.88M261.951 180.046C260.649 183.181 254.727 184.598 253.825 180.684C253.681 180.063 254.127 178.965 254.527 177.914C254.936 176.851 255.293 175.83 254.94 175.404C256.744 177.565 260.509 177.472 261.951 180.046ZM256.871 166.602C255.012 170.716 250.89 179.025 252.417 185.121C252.834 186.797 254.57 188.461 256.297 188.81C258.377 189.231 260.126 187.593 261.343 186.155C263.24 183.921 265.099 178.118 263.759 175.149C262.653 172.707 257.761 172.562 256.969 170.486C256.365 168.912 257.709 168.053 256.871 166.602ZM170.507 259.688C171.826 259.688 173.051 259.241 174.017 258.39C175.498 257.084 176.587 255.012 177.285 252.859C177.682 251.681 177.874 250.444 177.85 249.201C177.825 247.844 177.723 246.295 177.833 245.852C177.216 248.388 176.344 251.06 173.634 252.196C171.256 253.196 168.899 251.885 167.763 249.754C163.764 242.283 169.737 231.205 170.924 225.674C167.623 230.256 164.747 238.845 164.313 246.856C164.002 252.625 165.436 259.688 170.507 259.688Z" fill="black"/>
</g>
<mask id="mask5_2081_397" style="mask-type:luminance" maskUnits="userSpaceOnUse" x="12" y="17" width="456" height="455">
<path d="M12.7637 471.437H467.17V17.0176H12.7637V471.437Z" fill="white"/>
</mask>
<g mask="url(#mask5_2081_397)">
<path fill-rule="evenodd" clip-rule="evenodd" d="M74.6103 223.491C98.1371 201.224 126.641 187.478 142.821 181.884C165.867 173.928 185.101 165.768 198.579 159.927C209.759 155.06 220.8 149.878 231.686 144.385C236.568 141.93 241.425 139.427 246.258 136.876C247.551 136.196 263.73 127.763 263.126 127.006L260.51 123.649C252.98 115.013 252.044 104.237 251.937 101.008C252.746 100.084 256.855 97.1362 256.855 97.1362C256.855 97.1362 252.856 94.1412 251.988 93.1797V72.9841C252.86 72.0354 256.855 69.0105 256.855 69.0105C256.855 69.0105 251.78 64.8795 251.763 64.8795V60.74L260.778 55.1965C260.744 55.2008 251.759 50.3167 251.759 50.3167L244.624 17.0176L237.243 50.3167C237.243 50.3167 228.781 55.0561 228.776 55.1965C228.776 55.2093 237.221 60.74 237.221 60.74L237.196 64.8923C237.187 64.8923 232.822 69.0105 232.822 69.0105C232.822 69.0105 237.136 73.2564 237.145 73.2564L237.153 92.9329C237.111 92.9329 232.822 97.1362 232.822 97.1362L237.315 101.263C237.204 104.539 236.247 115.264 228.742 123.866L225.071 127.938C226.93 129.24 228.406 130.278 229.023 130.703C229.053 130.729 240.11 124.764 240.11 124.764C240.11 124.764 238.4 123.326 236.222 121.475C241.025 117.647 241.501 105.394 241.523 101.267L241.574 98.8295C241.574 98.8295 237.417 97.1448 237.417 97.0724C237.417 97.0299 241.574 95.3154 241.574 95.3154V70.8356C241.574 70.8356 237.417 69.0913 237.417 69.0786C237.417 69.0616 241.578 67.3258 241.578 67.3258L241.663 56.911H237.506C237.506 56.911 234.46 55.4645 234.46 55.3156C234.46 55.2901 237.277 53.7245 237.277 53.7245H241.659L241.616 50.321L244.777 35.2605L247.483 50.321L247.487 53.7245H251.997C251.997 53.7245 254.639 54.9753 254.656 55.0944C254.66 55.1242 251.993 56.911 251.993 56.911H247.487L247.385 67.3258C247.385 67.3258 251.75 69.0275 251.75 69.0786C251.75 69.0956 247.385 70.8356 247.385 70.8356V95.3196C247.385 95.3196 251.75 97.0639 251.75 97.0767C251.75 97.0937 247.385 98.8337 247.385 98.8337C247.504 99.6463 247.589 100.463 247.662 101.28C247.857 103.633 247.904 105.994 248.172 108.346C248.521 111.537 249.121 114.868 250.512 117.812C250.852 118.536 251.24 119.242 251.72 119.889C252.01 120.28 252.605 121.131 253.124 121.365C247.918 124.395 242.641 127.301 237.298 130.082C228.432 134.536 219.298 138.468 210.198 142.471C206.203 143.951 202.199 145.406 198.213 146.64C177.179 153.158 146.573 165.649 126.578 174.6C107.918 182.951 89.1688 193.617 74.8528 206.461C55.2614 224.032 39.4138 247.984 34.0788 273.476C32.4962 280.326 32.0282 286.265 32.1516 291.213C32.0832 298.906 33.1293 306.568 35.2573 313.961C35.3338 312.076 35.4572 310.209 35.6019 308.345C35.755 308.668 35.8486 308.83 35.8486 308.83C35.8253 307.839 35.8154 306.848 35.8188 305.856C38.8097 274.501 51.5813 246.15 74.6188 223.491" fill="black"/>
</g>
<mask id="mask6_2081_397" style="mask-type:luminance" maskUnits="userSpaceOnUse" x="12" y="17" width="456" height="455">
<path d="M12.7637 471.437H467.17V17.0176H12.7637V471.437Z" fill="white"/>
</mask>
<g mask="url(#mask6_2081_397)">
<path fill-rule="evenodd" clip-rule="evenodd" d="M209.763 229.018C215.459 221.513 223.13 214.17 234.689 212.153C234.978 212.128 235.259 212.111 235.412 212.217C234.247 219.143 228.329 241.487 199.701 259.411C199.743 248.243 204.091 236.489 209.763 229.018ZM194.362 275.531C198.219 273.733 201.944 271.663 205.508 269.337C217.118 262.304 226.312 251.894 232.443 239.062C237.705 228.039 241.122 212.766 237.208 198.399C230.388 197.535 224.104 201.011 219.637 204.108C207.593 212.456 198.85 225.925 197.136 243.232C197.016 244.444 196.787 248.107 196.497 251.57C183.368 201.517 215.885 167.274 255.829 160.22C255.88 160.059 239.594 146.223 239.577 146.232C221.296 154.043 211.656 161.386 201.9 174.932C192.6 187.848 186.478 203.755 186.478 224.227C186.478 239.437 189.861 250.473 194.362 262.453C183.628 266.456 171.328 269.775 156.851 267.686C133.277 264.291 124.377 251.179 111.431 238.646C111.388 239.309 106.581 252.021 106.632 252.391C106.683 252.757 110.716 257.271 111.086 257.756C114.426 262.125 118.242 268.567 117.255 275.867C115.128 291.587 94.3668 297.522 80.2422 289.281C67.6918 281.951 63.2247 265.061 68.9383 250.715C71.6058 244.01 79.1489 236.608 86.4111 233.613C93.601 230.656 100.961 230.498 110.746 230.932C100.395 222.066 82.6247 227.993 74.7626 234.285C55.4477 249.741 54.4819 286.622 75.7921 301.687C81.7142 305.878 90.9931 308.634 99.438 306.716C103.76 305.737 108.036 302.687 111.086 300.011C118.744 293.289 122.352 281.309 123.628 269.681C135.617 276.471 149.104 283.993 167.41 282.772C177.65 282.087 186.159 279.381 194.362 275.531ZM316.416 210.707C315.373 209.924 313.765 209.239 313.689 207.478C315.271 205.904 317.33 209.035 316.416 210.707ZM292.634 232.957C301.066 227.895 309.677 223.181 315.229 215.472L317.475 217.182C317.684 217.357 317.884 217.527 318.071 217.676C318.258 217.829 318.428 217.961 318.568 218.059C318.654 218.118 320.496 214 320.504 213.987C320.279 213.655 318.177 212.115 317.416 211.507C317.684 210.869 317.913 210.26 318.096 209.745C318.241 209.397 318.364 209.022 318.471 208.627L318.577 208.286L318.556 208.312C319.207 205.546 318.824 202.117 316.399 202.02C313.987 201.922 310.038 208.261 310.94 211.464C311.086 211.965 311.38 212.41 311.783 212.741C311.94 212.911 312.634 213.464 313.51 214.145C307.477 220.96 298.854 227.125 292.634 232.957Z" fill="black"/>
</g>
<mask id="mask7_2081_397" style="mask-type:luminance" maskUnits="userSpaceOnUse" x="12" y="17" width="456" height="455">
<path d="M12.7637 471.437H467.17V17.0176H12.7637V471.437Z" fill="white"/>
</mask>
<g mask="url(#mask7_2081_397)">
<path fill-rule="evenodd" clip-rule="evenodd" d="M256.068 272.451C258.583 267.763 260.569 262.785 262.271 257.76C262.488 257.195 262.726 256.552 262.994 255.808C264.39 251.936 265.024 248.014 265.241 244.453L265.245 244.431C272.853 241.068 279.765 236.31 285.624 230.405C297.515 218.939 301.467 210.92 303.02 204.993C307.457 188.031 299.331 177.463 291.346 168.563C283.935 160.305 255.183 138.578 254.915 138.684C253.312 139.314 246.747 142.535 244.177 143.947C243.824 144.143 299.638 188.414 299.038 198.174C298.923 198.727 298.787 199.267 298.638 199.803C297.149 203.87 294.545 208.652 289.482 214.242C287.725 216.102 285.726 218.42 283.926 219.982C283.19 220.62 282.437 221.258 281.68 221.896C277.2 225.363 271.627 228.716 264.747 231.698C261.867 226.525 256.392 220.649 250.223 222.551C242.31 224.985 237.536 246.244 247.138 249.375C250.002 250.311 252.512 249.788 254.775 248.975C256.139 248.535 257.478 248.021 258.787 247.435C258.723 261.526 250.176 272.37 241.654 279.556C223.114 295.191 193.827 302.529 164.893 307.72C169.717 308.979 175.018 309.064 179.979 309.4C186.701 309.864 193.457 310.043 200.2 309.996C206.922 309.953 213.567 308.166 219.868 306.061C225.317 304.231 230.395 301.44 234.86 297.82C243.45 290.911 250.942 281.998 256.068 272.451Z" fill="black"/>
</g>
</svg>
