<svg width="734" height="509" viewBox="0 0 734 509" fill="none" xmlns="http://www.w3.org/2000/svg">
<g clip-path="url(#clip0_2081_333)">
<mask id="mask0_2081_333" style="mask-type:luminance" maskUnits="userSpaceOnUse" x="0" y="0" width="734" height="509">
<path d="M733.5 0.5H0.5V508.5H733.5V0.5Z" fill="white"/>
</mask>
<g mask="url(#mask0_2081_333)">
<path d="M366.683 0.5L169.316 197.735L367.323 395.609L565.331 197.735L366.683 0.5ZM366.683 386.096L178.835 197.735L366.683 10.0129L554.53 197.735L366.683 386.096Z" fill="black"/>
<path d="M309.569 136.217L297.504 145.73V162.219L308.929 156.515V150.81L432.047 136.217H309.569Z" fill="black"/>
<path d="M369.221 26.5027L364.777 25.2305L361.607 94.3651L371.759 95.6292L369.221 26.5027Z" fill="black"/>
<path d="M343.203 107.047L333.684 114.024V130.513L342.562 124.809V116.56L397.781 107.047H343.203Z" fill="black"/>
<path d="M309.569 299.848L297.504 309.361V309.993L308.296 320.77L308.929 320.138V315.066L432.047 299.848H309.569Z" fill="black"/>
<path d="M309.569 201.543L297.504 211.056V227.545L308.929 221.841V216.76L432.047 201.543H309.569Z" fill="black"/>
<path d="M309.569 169.195L297.504 178.076V194.565L308.929 188.861V183.78L432.047 169.195H309.569Z" fill="black"/>
<path d="M309.569 234.521L297.504 244.034V260.524L308.929 254.819V249.739L432.047 234.521H309.569Z" fill="black"/>
<path d="M309.569 267.502L297.504 277.015V292.873L308.929 287.792V282.088L432.047 267.502H309.569Z" fill="black"/>
<path d="M320.352 332.818L332.41 344.876L411.102 335.363L413.648 332.818H320.352Z" fill="black"/>
<path d="M161.695 469.809H168.044L175.025 498.348L182.639 469.809H189.62L196.602 498.348L203.583 469.809H210.564L200.405 506.597H193.423L185.81 478.058L178.196 506.597H171.214L161.695 469.809Z" fill="black"/>
<path d="M216.906 488.203C216.906 495.18 220.077 502.156 228.331 502.156C236.585 502.156 239.756 495.18 239.756 488.203C239.756 481.226 236.585 474.25 228.331 474.25C220.077 474.25 216.906 481.226 216.906 488.203ZM246.105 488.203C246.105 498.988 239.123 507.861 228.331 507.861C216.906 507.861 210.557 498.98 210.557 488.203C210.557 477.426 217.539 468.545 228.331 468.545C239.123 468.545 246.105 477.426 246.105 488.203Z" fill="black"/>
<path d="M283.549 469.809H289.89V501.524H308.929V506.597H283.549V469.809Z" fill="black"/>
<path d="M319.086 501.524H325.435C335.587 501.524 338.125 495.82 338.125 488.203C338.125 480.586 336.219 474.882 325.435 474.882H319.086V501.516V501.524ZM312.105 469.809H327.333C338.757 469.809 343.833 478.05 343.833 488.203C343.833 498.356 338.757 506.597 327.333 506.597H312.105V469.809Z" fill="black"/>
<path d="M354.627 469.809H385.082V475.522H373.025V506.597H366.684V475.522H354.627V469.809Z" fill="black"/>
<path d="M433.319 492.011H444.743L439.035 476.154L433.327 492.011H433.319ZM435.857 469.809H442.838L457.433 507.229H449.819L446.008 497.084H431.413L427.602 507.229H420.621L435.849 469.809H435.857Z" fill="black"/>
<path d="M466.32 501.524H472.669C482.821 501.524 485.358 495.82 485.358 488.203C485.358 480.586 483.453 474.882 472.669 474.882H466.32V501.516V501.524ZM459.971 469.809H475.199C486.623 469.809 491.699 478.05 491.699 488.203C491.699 498.356 486.623 506.597 475.199 506.597H459.971V469.809Z" fill="black"/>
<path d="M496.143 469.809H522.803V475.522H502.492V485.035H521.53V490.107H502.492V501.524H522.803V506.597H496.143V469.809Z" fill="black"/>
<path d="M562.785 481.225C561.512 476.785 558.974 473.617 553.265 473.617C545.019 473.617 541.841 480.593 541.841 487.57C541.841 494.547 545.011 501.523 553.265 501.523C558.974 501.523 562.152 497.083 562.785 492.01H569.133C568.501 500.891 562.152 507.228 553.265 507.228C541.841 507.228 535.492 498.347 535.492 487.57C535.492 476.793 542.473 467.912 553.265 467.912C561.512 467.912 568.493 472.353 569.133 480.593H562.785V481.225Z" fill="black"/>
<path d="M573.57 469.809H600.222V475.522H579.919V485.035H598.957V490.107H579.919V501.524H600.863V506.597H573.57V469.809Z" fill="black"/>
<path d="M604.033 469.809H611.014L628.148 497.084V469.809H634.496V506.597H627.515L610.382 479.322V506.597H604.033V469.809Z" fill="black"/>
<path d="M637.668 469.809H667.499V475.522H656.074V506.597H649.092V475.522H637.668V469.809Z" fill="black"/>
<path d="M704.303 469.809H730.963V475.522H710.652V485.035H729.69V490.107H710.652V501.524H731.596V506.597H704.303V469.809Z" fill="black"/>
<path d="M410.469 491.378C416.178 489.474 417.451 484.402 417.451 480.593C417.451 476.153 415.545 469.176 404.761 469.176H388.26V506.596H394.609V474.889H404.128C407.299 474.889 410.477 476.161 410.477 481.233C410.477 485.674 406.666 487.578 404.128 487.578H399.685L396.515 492.651H403.496L410.477 507.236H418.091L410.477 491.378H410.469Z" fill="black"/>
<path d="M693.518 491.378C699.227 489.474 700.5 484.402 700.5 480.593C700.5 476.153 698.594 469.176 687.81 469.176H671.309V506.596H677.658V474.889H687.178C690.348 474.889 693.526 476.161 693.526 481.233C693.526 485.674 689.716 487.578 687.178 487.578H682.734L679.564 492.651H686.545L693.526 507.236H701.14L693.526 491.378H693.518Z" fill="black"/>
<path d="M272.756 491.378C278.464 489.474 279.737 484.402 279.737 480.593C279.737 476.153 277.832 469.176 267.048 469.176H250.547V506.596H256.896V474.889H266.415C269.586 474.889 272.764 476.161 272.764 481.233C272.764 485.674 268.953 487.578 266.415 487.578H261.972L258.801 492.651H265.783L272.764 507.236H280.378L272.764 491.378H272.756Z" fill="black"/>
<path d="M6.84885 501.524H13.1977C23.3495 501.524 25.8874 495.82 25.8874 488.203C25.8874 480.586 23.9819 474.882 13.1977 474.882H6.84885V501.516V501.524ZM0.5 469.809H15.7276C27.1524 469.809 32.2282 478.05 32.2282 488.203C32.2282 498.356 27.1524 506.597 15.7276 506.597H0.5V469.809Z" fill="black"/>
<path d="M36.6719 469.809H43.0208V491.371C43.0208 496.444 43.0208 502.156 51.9076 502.156C60.7944 502.156 60.7944 496.452 60.7944 491.371V469.809H67.1432V493.908C67.1432 503.421 60.7944 508.493 51.9156 508.493C43.0368 508.493 36.6879 504.053 36.6879 493.908V469.809H36.6719Z" fill="black"/>
<path d="M114.098 492.011H125.523L119.814 476.154L114.106 492.011H114.098ZM116.636 469.809H123.617L138.212 507.229H131.231L127.42 497.084H112.825L109.014 507.229H102.033L116.628 469.809H116.636Z" fill="black"/>
<path d="M147.101 469.809H140.752V507.229H147.101V469.809Z" fill="black"/>
<path d="M89.3516 501.523H77.9268V474.889H88.0786C91.8895 474.889 93.787 476.161 93.787 479.961C93.787 483.13 91.249 485.034 88.0786 485.034H82.3702L79.8323 489.474H89.3516C93.1625 489.474 95.7004 491.378 95.7004 495.179C95.7004 499.619 93.1625 501.523 89.3516 501.523ZM95.0599 486.938C98.2304 485.666 100.136 482.498 100.136 478.697C100.136 472.353 95.6924 469.184 89.3436 469.184H70.9375V506.604H88.0706C97.5899 506.604 102.034 502.163 102.034 496.459C102.034 491.386 99.4953 487.578 95.0519 486.946" fill="black"/>
<path d="M611.007 415.906H605.299V420.347H611.007V415.906Z" fill="black"/>
<path d="M567.22 421.611H551.992L555.163 426.683H565.314C575.466 426.683 578.004 432.388 578.004 440.005V447.613H548.814V453.318H584.353V440.637C583.721 429.852 578.645 421.611 567.22 421.611Z" fill="black"/>
<path d="M475.831 455.855H470.123V460.295H475.831V455.855Z" fill="black"/>
<path d="M484.718 455.855H479.01V460.295H484.718V455.855Z" fill="black"/>
<path d="M543.739 455.855H538.031V460.295H543.739V455.855Z" fill="black"/>
<path d="M543.739 421.611H537.39V447.613H518.352V421.611H503.124C491.699 421.611 486.623 429.852 486.623 440.005V447.613H473.934C468.225 447.613 465.047 443.805 464.414 438.1V421.611H458.066V438.1C458.698 446.981 465.047 453.318 473.934 453.318H492.972V440.637C492.972 433.028 494.878 427.315 505.662 427.315H512.011V453.318H543.739V421.611Z" fill="black"/>
<path d="M18.265 455.855H12.5566V460.295H18.265V455.855Z" fill="black"/>
<path d="M27.1518 455.855H21.4434V460.295H27.1518V455.855Z" fill="black"/>
<path d="M129.967 447.615H110.928C112.201 445.079 113.466 441.911 113.466 438.102C113.466 429.222 107.758 421.613 98.2387 421.613C89.3519 421.613 83.6435 428.589 83.011 436.83C82.3786 443.175 80.4731 447.615 72.2188 447.615H60.7941V421.613H45.5664C34.1417 421.613 29.0658 429.854 29.0658 440.007V447.615H16.3761C10.6678 447.615 7.48934 443.807 6.85686 438.102V421.613H0.5V438.102C1.13248 446.983 7.48133 453.32 16.3681 453.32H35.4067V440.639C35.4067 433.03 37.3121 427.317 48.0964 427.317H54.4452V453.32H72.8513C77.9272 453.32 81.7381 451.416 84.276 448.879C87.4464 445.711 88.7194 441.903 89.3519 436.83V436.198C89.9844 431.126 92.5223 427.317 98.2387 427.317C104.588 427.317 107.125 433.022 107.125 438.102C107.125 443.807 104.588 448.887 98.2387 448.887C95.7007 448.887 93.7953 448.255 92.5303 446.983L87.4544 450.152C89.9924 453.32 93.8033 454.592 98.2467 454.592C100.785 454.592 103.323 453.96 105.228 452.688H136.324V415.268H129.975V447.615H129.967Z" fill="black"/>
<path d="M652.262 430.492H640.205L654.8 415.906H646.554L627.515 435.564H652.262C655.432 435.564 658.611 436.836 658.611 441.909C658.611 446.981 655.44 447.613 652.262 447.613H611.647V422.883H605.939V452.054C605.939 454.59 605.939 455.862 603.401 455.862H598.957L601.495 460.302H604.033C609.109 460.302 611.647 457.766 611.647 452.694H652.894C663.687 452.694 665.584 445.717 665.584 441.277C664.952 437.468 663.046 430.492 652.254 430.492" fill="black"/>
<path d="M314.643 452.054C314.643 454.59 314.643 455.862 312.105 455.862H307.662L310.2 460.302H312.738C318.446 460.302 320.351 457.134 320.351 452.062V421.619H314.643V452.062V452.054Z" fill="black"/>
<path d="M403.487 415.906H397.779V420.347H403.487V415.906Z" fill="black"/>
<path d="M394.601 415.906H388.893V420.347H394.601V415.906Z" fill="black"/>
<path d="M419.356 447.614H403.488V423.516H397.78V447.614H381.279V441.27C381.279 430.485 374.298 421.612 363.505 421.612C355.892 421.612 350.816 425.42 347.637 431.125L353.346 434.293C354.619 429.853 358.421 426.684 363.497 426.684C371.744 426.684 374.922 433.661 374.922 440.638V446.982H331.769V415.275H325.42V453.327H426.329V415.907H419.98V447.614H419.348H419.356Z" fill="black"/>
<path d="M436.49 415.906H430.141V453.326H436.49V415.906Z" fill="black"/>
<path d="M298.775 432.397C296.869 431.765 284.18 428.588 283.547 428.588V426.052C283.547 422.244 287.358 420.98 290.529 420.98C294.972 420.98 298.142 422.884 298.775 427.324H305.124C305.124 419.716 298.775 415.275 290.529 415.275C283.547 415.275 277.198 419.084 277.198 426.06V432.405C282.274 433.677 293.699 436.845 296.869 437.477C298.142 438.109 300.04 439.381 300.04 441.918C300.04 444.454 298.134 447.622 292.426 447.622H268.944C263.236 447.622 260.057 443.182 259.425 438.109V421.62H253.076V438.109C253.708 446.99 260.057 453.327 268.944 453.327H291.153C298.767 453.327 305.748 450.159 305.748 441.91C305.748 438.101 303.21 433.669 298.767 432.397" fill="black"/>
<path d="M279.737 455.855H274.029V460.295H279.737V455.855Z" fill="black"/>
<path d="M288.616 455.855H282.908V460.295H288.616V455.855Z" fill="black"/>
<path d="M366.676 455.855H360.967V460.295H366.676V455.855Z" fill="black"/>
<path d="M213.101 447.613H169.948V441.269C169.948 434.292 173.119 427.315 181.373 427.315C186.449 427.315 190.26 430.484 191.525 434.924L197.233 431.756C194.695 426.051 188.987 422.243 181.365 422.243C169.94 422.243 163.592 431.124 163.592 441.901V448.245H147.091V416.538H140.742V453.326H220.075V415.906H213.726V447.613H213.093H213.101Z" fill="black"/>
<path d="M230.236 415.906H223.887V453.326H230.236V415.906Z" fill="black"/>
<path d="M718.264 421.611C709.378 421.611 703.669 428.587 703.037 436.828C702.404 443.173 700.499 447.613 692.245 447.613H679.555V421.611H673.846V452.054C673.846 454.59 673.846 455.862 671.308 455.862H666.865L669.403 460.302H671.941C677.017 460.302 679.555 457.766 679.555 452.694H692.885C697.961 452.694 701.772 450.79 704.31 448.253C707.48 445.085 708.753 441.277 709.386 436.204V435.572C710.018 430.5 712.556 426.691 718.272 426.691C724.621 426.691 727.159 432.396 727.159 437.476C727.159 443.181 724.621 448.261 718.272 448.261C715.734 448.261 713.829 447.629 712.564 446.357L707.488 449.525C710.026 452.694 713.837 453.966 718.28 453.966C727.8 453.966 733.508 446.357 733.508 437.476C733.508 429.236 727.8 421.619 718.28 421.619" fill="black"/>
</g>
</g>
<defs>
<clipPath id="clip0_2081_333">
<rect width="733" height="508" fill="white" transform="translate(0.5 0.5)"/>
</clipPath>
</defs>
</svg>
