<svg width="635" height="508" viewBox="0 0 635 508" fill="none" xmlns="http://www.w3.org/2000/svg">
<g clip-path="url(#clip0_2081_314)">
<mask id="mask0_2081_314" style="mask-type:luminance" maskUnits="userSpaceOnUse" x="0" y="0" width="635" height="508">
<path d="M635 0H0V508H635V0Z" fill="white"/>
</mask>
<g mask="url(#mask0_2081_314)">
<path d="M635 312.873V356.777H412.642V300.145C412.642 295.697 410.317 293.46 405.666 292.83V290.927C414.646 290.606 421.932 287.418 427.609 281.684H429.576L428.264 296.957V341.504H619.069V328.467H557.607V302.37L605.76 281.684L608.097 286.442L572.549 310.327V312.873H634.988H635ZM101.648 341.516L101.327 338.007C100.659 334.188 100.003 331.013 98.3336 327.825C92.347 328.801 88.3642 332.916 86.7067 341.516H101.648ZM310.474 320.831L310.14 305.57C300.48 307.473 295.52 310.982 295.52 315.752C295.52 319.261 297.524 320.831 301.519 320.831H310.487H310.474ZM327.754 356.801H117.283L116.603 360.928C114.958 366.971 111.618 371.741 106.633 375.559C101.327 379.044 95.6743 380.971 89.6877 380.971C82.3899 380.971 76.7373 379.056 71.4186 374.929C65.7907 370.802 62.1295 364.747 60.7689 356.814H63.453C64.7765 360.941 67.4358 364.438 70.7631 366.971C74.078 369.85 78.4071 371.11 82.3899 371.11C87.0531 371.11 90.6772 369.85 94.0168 367.28C97.3441 364.734 99.6447 361.237 100.325 356.801H71.097L70.7631 346.916L72.0866 337.389C73.4348 331.655 75.7354 326.886 78.4071 323.389C80.7078 320.831 84.0474 318.298 89.0197 316.061C94.3384 313.515 99.991 311.921 105.31 310.97C111.272 316.691 115.254 326.552 117.271 340.564V341.516H311.452V336.104H298.823C293.85 336.104 289.2 334.497 285.872 331.631C282.224 328.467 279.886 324.315 279.886 319.237C279.886 311.897 284.883 304.915 294.852 298.86C304.475 293.139 315.41 290.26 328.063 290.26L327.742 356.777L327.754 356.801ZM382.351 322.116L381.374 317.025C376.71 325.613 369.722 331.013 360.779 333.237V334.843C365.108 335.152 368.398 337.068 371.07 339.947C373.408 343.098 375.053 346.607 375.053 351.068C375.053 357.098 372.74 361.559 369.079 365.711C365.121 369.516 360.111 371.432 354.471 371.432C347.816 371.432 342.51 369.516 337.859 366.032C339.517 369.838 342.844 373.668 347.482 376.832C352.801 380.032 357.786 381.614 363.426 381.614C371.07 381.614 377.391 378.747 383.031 373.013C389.352 366.65 392.345 359.013 392.345 349.486C392.345 344.061 390.675 338.34 387.706 332.285L382.375 322.116H382.351ZM44.1945 322.116L43.1926 317.025C38.5418 325.613 31.2317 331.013 22.5982 333.237V334.843C26.915 335.152 30.2298 337.068 32.8892 339.947C35.5485 343.098 36.8844 346.607 36.8844 351.068C36.8844 357.098 34.893 361.559 30.8978 365.711C26.9273 369.516 21.9426 371.432 16.29 371.432C9.98179 371.432 4.32915 369.516 0 366.032C1.34822 369.838 4.31678 373.668 9.30149 376.832C14.2986 380.032 19.6049 381.614 25.2575 381.614C32.5552 381.614 39.2097 378.747 45.1716 373.013C50.8119 366.65 54.1268 359.013 54.1268 349.486C54.1268 344.395 52.4693 338.637 49.1421 332.285L44.1821 322.116H44.1945ZM288.21 288.369H288.532C288.532 288.369 291.686 288.394 294.877 285.824C296.201 284.242 297.19 282.315 297.19 280.103C297.19 278.212 296.201 276.297 294.531 274.703C292.564 273.096 290.56 272.157 288.223 272.157C286.219 272.157 284.227 273.109 282.595 274.703C280.925 276.297 279.911 278.212 279.911 280.103C279.911 282.648 280.925 284.551 282.595 286.158C284.227 287.739 286.231 288.369 288.223 288.369M449.366 435.662C460.078 435.662 469.391 439.295 475.984 445.647C482.577 451.998 486.461 461.043 486.461 471.695C486.461 482.346 482.404 491.503 475.65 497.891C468.884 504.304 459.447 507.987 448.748 507.987H448.723C438.568 507.987 429.303 504.354 422.599 497.978C415.883 491.614 411.739 482.519 411.739 471.695C411.777 450.268 429.44 435.675 449.378 435.662M449.49 496.878C459.187 496.878 466.2 488.698 466.25 472.72C466.25 464.38 464.332 457.707 461.166 453.184C458 448.637 453.695 446.24 448.71 446.24C438.63 446.252 432.383 454.927 432.309 469.705C432.371 488.685 440.992 496.853 449.477 496.866M623.274 435.811C617.053 435.823 610.744 439.925 606.774 446.141C605.401 440.803 602.098 436.676 596.038 436.688C594.43 436.688 592.859 436.947 591.028 437.454C586.6 438.776 579.983 441.767 579.871 447.537C579.871 448.513 580.069 449.539 580.527 450.639L580.787 451.207L581.417 451.108C582.704 450.874 583.817 450.75 584.807 450.75C589.024 450.861 590.199 452.554 590.336 457.423V486.313C590.336 492.034 589.606 494.073 587.738 495.531C586.044 496.853 584.003 497.422 582.828 497.656L582.432 497.718L582.271 498.076C581.751 499.201 581.43 500.227 581.43 501.203C581.417 503.686 583.446 505.305 586.575 506.108C589.729 506.986 594.294 507.319 600.33 507.319C606.366 507.319 610.571 507.01 613.527 506.158C616.471 505.392 618.314 503.785 618.289 501.45C618.289 500.4 617.943 499.3 617.362 498.064L617.189 497.706L616.805 497.644C615.556 497.409 611.969 496.791 610.213 495.519C608.543 494.061 607.689 492.009 607.677 486.3V468.877C607.726 454.642 612.55 450.528 615.989 449.465C616.867 453.629 620.825 456.471 625.327 456.459C631.388 456.434 635.012 451.294 635.025 446.376C635 439.444 629.149 435.798 623.299 435.798M216.878 435.934C210.669 435.947 204.348 440 200.366 446.141C198.918 440.889 195.653 436.799 189.555 436.812C188.034 436.812 186.389 437.071 184.632 437.578C180.155 438.9 173.537 441.865 173.426 447.624C173.426 448.612 173.636 449.663 174.094 450.762L174.329 451.331L174.997 451.232C176.271 450.997 177.384 450.874 178.349 450.874C182.591 450.985 183.779 452.69 183.927 457.546V486.436C183.915 492.158 183.173 494.196 181.367 495.679C179.573 496.977 177.594 497.558 176.382 497.792L175.974 497.854L175.801 498.212C175.256 499.325 174.96 500.363 174.96 501.339C174.96 503.785 176.951 505.441 180.08 506.257C183.259 507.134 187.786 507.468 193.835 507.468C199.883 507.468 204.113 507.159 207.082 506.318C210.05 505.528 211.893 503.934 211.869 501.573C211.869 500.536 211.535 499.436 210.953 498.225L210.793 497.866L210.409 497.805C209.098 497.57 205.523 496.94 203.841 495.679C202.035 494.221 201.157 492.17 201.145 486.461V469.038C201.207 454.803 206.105 450.676 209.568 449.613C210.434 453.777 214.355 456.619 218.845 456.607C224.955 456.595 228.616 451.442 228.616 446.524C228.592 439.592 222.654 435.947 216.878 435.947M573.625 494.542L573.031 494.617C572.4 494.678 571.819 494.691 571.263 494.691C566.08 494.617 564.2 492.195 564.051 486.832C564.051 485.559 564.2 481.395 564.2 473.524C564.2 454.927 564.447 450.478 564.447 447.97C564.447 444.51 563.73 441.544 561.887 439.382C560.044 437.219 557.15 436.021 553.216 436.021C551.682 436.021 550.099 436.28 548.405 436.527C543.568 437.491 535.38 440.803 535.219 446.981C535.219 447.859 535.405 448.798 535.801 449.737L536.036 450.268L536.642 450.219C537.384 450.145 538.101 450.083 538.769 450.083C543.791 450.219 545.498 451.973 545.646 457.176V474.833C545.646 479.393 544.842 484.113 542.628 487.635C540.414 491.144 536.939 493.492 531.224 493.505C525.955 493.455 523.073 491.639 521.193 487.796C519.337 483.916 518.731 477.886 518.731 469.841L518.867 447.994C518.867 444.522 518.125 441.557 516.319 439.382C514.489 437.219 511.594 436.021 507.673 436.021C506.127 436.021 504.544 436.28 502.862 436.527C498.05 437.491 489.85 440.803 489.701 446.981C489.701 447.859 489.887 448.798 490.27 449.737L490.505 450.268L491.099 450.219C491.866 450.145 492.571 450.083 493.239 450.083C498.248 450.231 499.955 451.973 500.116 457.176V469.94C500.116 483.224 500.054 492.565 506.536 499.93C510.741 504.663 517.346 507.529 525.114 507.529C532.238 507.529 538.559 504.897 543.383 500.573C544.682 499.386 545.547 498.534 546.277 497.743C546.908 500.301 547.613 502.55 548.936 504.292C550.495 506.38 552.969 507.616 556.642 507.616H556.766C558.102 507.616 559.611 507.369 561.268 507.122C566.018 506.22 574.243 503.798 574.466 497.768C574.466 496.903 574.256 496.025 573.872 495.074L573.637 494.53L573.625 494.542ZM353.308 471.67H308.26C309.015 484.2 317.376 492.948 331.898 492.998C340.828 493.01 347.717 488.315 350.006 485.51L350.488 484.917L351.107 485.361C352.418 486.263 353.815 487.87 353.778 490.984C353.754 498.2 344.897 507.431 325.255 507.443C305.317 507.418 289.101 492.244 289.064 472.411C289.064 461.562 292.787 452.196 299.342 445.535C305.873 438.887 315.236 434.97 326.307 434.995C336.4 434.97 343.858 438.554 348.756 443.67C353.655 448.773 355.98 455.384 355.98 461.476C355.98 465.084 355.201 468.445 353.543 471.287L353.308 471.658V471.67ZM337.117 460.821C337.389 460.339 337.476 459.424 337.451 458.3C337.315 451.701 331.947 445.61 323.697 445.61C313.282 445.61 309.077 453.567 308.421 461.599H335.015C336.449 461.575 336.833 461.253 337.117 460.833M408.561 437.8H390.217V426.877C390.217 422.96 390.712 419.5 392.209 417.152C393.718 414.804 396.056 413.395 400.36 413.358C403.019 413.346 405.79 414.075 407.25 415.286C406.309 416.658 405.679 418.511 405.679 420.315C405.703 425.246 410.193 429.126 415.054 429.15C421.585 429.15 424.69 423.837 424.69 419.549C424.628 409.676 413.013 403.522 399.173 403.522C388.164 403.51 380.928 407.761 376.785 413.927C374.076 417.807 372.084 423.577 372.084 433.735V437.936H367.409C363.686 437.936 360.68 440.407 360.668 444.09C360.668 445.239 360.94 446.413 361.484 447.673L361.67 448.118L372.357 448.464V486.449C372.332 492.17 371.602 494.209 369.771 495.679C367.99 496.989 366.024 497.57 364.811 497.792L364.403 497.866L364.218 498.212C363.686 499.325 363.414 500.35 363.414 501.326C363.389 503.798 365.43 505.429 368.572 506.257C371.75 507.134 376.339 507.48 382.375 507.48C388.412 507.48 393.384 507.146 396.773 506.22C400.113 505.355 402.351 503.699 402.351 501.104C402.351 500.202 402.079 499.25 401.585 498.237L401.424 497.866L401.028 497.805C399.692 497.582 395.153 496.915 393.545 495.679C391.714 494.196 390.737 492.145 390.737 486.449V448.773C392.976 448.822 395.994 449.032 399.049 449.032C400.348 449.032 401.795 449.032 403.168 448.884C406.73 448.563 409.587 445.721 409.575 441.927C409.575 440.753 409.303 439.542 408.759 438.27L408.561 437.8ZM277.35 435.934C271.141 435.947 264.82 440 260.838 446.141C259.415 440.889 256.113 436.787 250.039 436.812C248.493 436.812 246.873 437.071 245.104 437.578C240.639 438.9 234.022 441.865 233.898 447.624C233.898 448.612 234.121 449.663 234.591 450.762L234.838 451.331L235.493 451.232C236.768 450.997 237.881 450.874 238.858 450.874C243.076 450.985 244.263 452.69 244.436 457.546V486.436C244.399 492.158 243.669 494.196 241.839 495.679C240.07 496.977 238.116 497.558 236.879 497.792L236.483 497.854L236.31 498.212C235.766 499.325 235.493 500.363 235.456 501.339C235.456 503.785 237.46 505.441 240.59 506.257C243.756 507.134 248.308 507.468 254.344 507.468C260.38 507.468 264.623 507.159 267.579 506.318C270.535 505.528 272.378 503.934 272.353 501.573C272.353 500.536 272.032 499.436 271.45 498.225L271.277 497.866L270.894 497.805C269.595 497.57 266.008 496.94 264.326 495.679C262.532 494.221 261.666 492.17 261.629 486.461V469.038C261.679 454.803 266.602 450.676 270.065 449.613C270.906 453.777 274.827 456.619 279.305 456.607C285.452 456.595 289.076 451.442 289.101 446.524C289.076 439.592 283.139 435.947 277.363 435.947M74.7954 467.456C71.765 467.456 68.9077 468.457 66.8174 470.323C64.727 472.214 63.4283 474.969 63.4406 478.33C63.4406 482.322 65.5681 484.768 67.1884 486.473C64.2817 491.354 58.493 495.284 49.4265 495.309C41.7083 495.284 35.0785 491.503 30.2793 484.805C25.4802 478.12 22.5982 468.494 22.5982 457.114C22.5982 445.733 25.3565 436.045 30.0319 429.323C34.7074 422.589 41.1888 418.783 48.907 418.771C57.9735 418.783 63.7622 422.774 66.6813 427.643C65.0733 429.373 62.8964 431.832 62.9211 435.835C62.9211 439.196 64.2322 441.927 66.2979 443.805C68.4006 445.696 71.2455 446.685 74.2882 446.685C80.448 446.685 84.9998 441.346 85.0122 434.501C84.9256 421.662 69.2293 406.809 46.9899 406.772C34.6085 406.772 22.8332 411.9 14.1872 420.785C5.54132 429.657 0.012369 442.298 0.012369 457.274C0.012369 472.251 5.67737 485.46 14.4594 494.073C23.2414 502.686 35.1527 507.356 47.5094 507.356C69.7365 507.332 85.4451 492.541 85.5317 479.615C85.5317 472.782 80.9675 467.493 74.8201 467.493M157.829 489.439C157.915 494.332 160.809 495.655 167.167 496.594L167.897 496.68L167.872 497.385C167.489 504.045 162.368 506.813 156.851 507.221C156.369 507.258 155.899 507.282 155.429 507.282C149.999 507.307 144.792 504.762 142.281 499.584C138.892 502.315 131.186 507.455 121.241 507.455C106.472 507.431 95.2413 497.916 95.2042 484.879C95.2042 478.009 98.3707 472.436 103.714 468.68C109.058 464.911 116.504 462.934 125.15 462.934C130.567 462.946 136.133 463.873 139.992 465.479V457.756C139.869 449.984 136.776 445.573 127.661 445.461C125.929 445.461 122.107 445.881 118.977 446.919C119.274 448.019 119.447 449.181 119.447 450.293C119.447 452.888 118.582 455.285 116.949 457.04C115.304 458.807 112.867 459.869 109.948 459.869C104.679 459.869 100.708 455.792 100.671 450.663C100.795 441.223 112.781 434.884 128.823 434.884C141.551 434.884 149.517 437.738 153.771 442.978C157.655 447.686 157.841 454.531 157.841 464.231V489.439M139.98 478.886C139.98 477.564 139.052 476.094 137.098 474.92C135.119 473.758 132.113 472.93 128.291 472.93C120.313 473.017 114.933 476.588 114.896 483.681C114.933 490.366 119.67 494.864 127.116 494.913C131.94 494.938 136.875 492.38 139.992 488.685V478.886H139.98ZM316.622 5.05334C311.724 6.69679 306.887 8.71096 299.899 13.0605C270.77 31.1385 257.721 64.3906 256.397 96.5553C256.311 98.3842 256.286 100.2 256.286 102.029C256.286 102.202 256.261 103.129 256.261 103.425V217.701H294.147V103.425C294.147 96.2094 297.413 89.7715 302.558 85.496L317.512 103.425L332.442 85.496C337.575 89.7715 340.853 96.2094 340.853 103.425V217.701H378.739V103.425C378.739 69.6423 351.317 42.2473 317.512 42.2473C309.51 42.2473 301.866 43.7795 294.877 46.5721C302.632 37.4652 314.358 32.955 327.173 32.6707H327.197C331.192 32.5719 335.311 32.9055 339.43 33.6346C372.963 39.121 398.505 67.1956 398.628 101.053C398.69 102.338 398.715 103.648 398.715 104.982V217.701H436.626V104.031C436.626 54.8018 407.015 15.3218 356.537 3.57053C354.694 3.1504 351.775 2.56962 349.165 2.21128C345.429 1.71701 341.607 1.29688 337.649 1.29688C329.448 1.29688 323.487 2.74262 316.622 5.02864" fill="black"/>
<path d="M309.362 0C244.017 0 198.387 44.0025 198.387 102.339V217.714H236.298C236.298 217.714 236.274 154.237 236.274 102.252C236.274 50.2674 277.45 9.29231 318.8 0.889689C320.482 0.531342 322.449 0 320.494 0H309.362Z" fill="black"/>
</g>
</g>
<defs>
<clipPath id="clip0_2081_314">
<rect width="635" height="508" fill="white"/>
</clipPath>
</defs>
</svg>
