<?xml version="1.0" encoding="UTF-8"?><svg id="_Слой_2" xmlns="http://www.w3.org/2000/svg" viewBox="0 0 1663.49 141.2"><defs><style>.cls-1{fill:#0c0c0c;stroke-width:0px;}</style></defs><g id="_Слой_1-2"><path class="cls-1" d="M122.96,114.11l.76-1.21-20.29-14.61-.86,1.35c-3.64,5.69-8.42,10.07-14.21,13.02-5.82,2.97-12.6,4.47-20.17,4.47-6.05,0-11.66-1.15-16.67-3.43-5.01-2.28-9.4-5.48-13.05-9.53-3.65-4.05-6.55-8.98-8.62-14.66-2.07-5.69-3.11-12.02-3.11-18.82s1.05-12.95,3.12-18.65c2.06-5.67,4.99-10.63,8.7-14.75,3.7-4.11,8.13-7.38,13.15-9.71,5.01-2.33,10.55-3.52,16.47-3.52,7.32,0,13.92,1.5,19.63,4.47,5.67,2.95,10.4,7.33,14.04,13.02l.86,1.35,1.3-.93,17.65-12.66,1.19-.85-.81-1.22c-5.82-8.73-13.36-15.53-22.4-20.21-9.04-4.67-19.5-7.03-31.1-7.03-9.68,0-18.79,1.84-27.08,5.48-8.28,3.62-15.58,8.65-21.7,14.95-6.11,6.3-10.99,13.87-14.49,22.51C1.78,51.57,0,60.97,0,70.87s1.71,19.62,5.1,28.19c3.38,8.57,8.14,16.09,14.13,22.33,6,6.24,13.25,11.16,21.55,14.61,8.28,3.45,17.45,5.2,27.24,5.2,11.93,0,22.8-2.36,32.31-7.01,9.54-4.68,17.16-11.43,22.63-20.08"/><polygon class="cls-1" points="240.51 137.99 240.51 115.88 187.73 115.88 187.73 80.05 234.98 80.05 234.98 57.94 187.73 57.94 187.73 25.32 238.72 25.32 238.72 3.21 163.31 3.21 163.31 137.99 240.51 137.99"/><polygon class="cls-1" points="467.45 25.32 467.45 137.99 493.3 137.99 493.3 25.32 528.43 25.32 528.43 3.21 432.33 3.21 432.33 25.32 467.45 25.32"/><path class="cls-1" d="M636.21,138.01h27.39l-27.72-51.4c17.56-6.11,28.81-21.97,28.81-40.88,0-25.43-18.82-42.51-46.82-42.51h-52.9v134.79h24.43v-48.43h21.2l25.61,48.43ZM639.7,46.26c0,10.14-6.06,20.97-23.07,20.97h-27.23V25.33h27.23c17.01,0,23.07,10.81,23.07,20.93"/><path class="cls-1" d="M799.81,137.99h27.19L772.65,3.21h-23.8l-54.53,134.78h26.66l11.41-30.31h56.02l11.41,30.31ZM779.95,85.58h-39.12l19.56-51.95,19.56,51.95Z"/><polygon class="cls-1" points="887.42 115.88 887.42 3.19 861.57 3.19 861.57 137.99 949.23 137.99 949.23 115.88 887.42 115.88"/><polygon class="cls-1" points="370.83 3.21 370.83 95.89 305.02 3.21 281.15 3.21 281.15 137.99 306.11 137.99 306.11 45.31 371.91 137.99 395.79 137.99 395.79 3.21 370.83 3.21"/><rect class="cls-1" x="1503.1" y="3.19" width="25.85" height="134.79"/><polygon class="cls-1" points="1198.59 137.97 1198.59 115.86 1145.82 115.86 1145.82 80.03 1193.07 80.03 1193.07 57.92 1145.82 57.92 1145.82 25.3 1196.81 25.3 1196.81 3.19 1121.39 3.19 1121.39 137.97 1198.59 137.97"/><polygon class="cls-1" points="1264.02 25.3 1264.02 137.97 1289.87 137.97 1289.87 25.3 1324.99 25.3 1324.99 3.19 1228.9 3.19 1228.9 25.3 1264.02 25.3"/><path class="cls-1" d="M1441.34,137.97h27.19L1414.18,3.19h-23.79l-54.53,134.78h26.66l11.41-30.31h56.02l11.41,30.31ZM1421.48,85.56h-39.12l19.56-51.95,19.56,51.95Z"/><polygon class="cls-1" points="1601.69 115.88 1601.69 3.19 1575.83 3.19 1575.83 137.99 1663.49 137.99 1663.49 115.88 1601.69 115.88"/><path class="cls-1" d="M1085.8,45.69c0-25.42-18.81-42.51-46.82-42.51h-52.9v134.78h24.43v-48.43h21.2l25.61,48.43h27.39l-27.73-51.4c17.57-6.11,28.81-21.96,28.81-40.88M1010.51,25.29h27.23c17.01,0,23.07,10.81,23.07,20.93s-6.06,20.97-23.07,20.97h-27.23V25.29Z"/></g></svg>