<?xml version="1.0" encoding="UTF-8"?><svg id="_Слой_2" xmlns="http://www.w3.org/2000/svg" viewBox="0 0 1047.39 188.39"><defs><style>.cls-1{fill:#1d1d1b;stroke-width:0px;}</style></defs><g id="_Слой_1-2"><path class="cls-1" d="M85.74,2.87l1.43,19.79h.57C96.06,7.17,107.81,0,122.73,0c18.93,0,28.96,7.74,35.56,22.65h.57C170.61,4.59,184.37,0,196.42,0c35.84,0,42.73,24.66,42.73,50.18v87.46h-45.88V60.79c0-12.33.57-24.37-12.62-24.37s-16.06,10.9-16.06,23.51v77.71h-45.88V60.79c0-12.33.57-24.37-12.62-24.37s-16.06,10.9-16.06,23.51v77.71h-45.31V56.77c-11.47.29-23.8-6.31-23.23-23.51C8.6,32.4,0,23.51,0,6.88V2.87h85.74Z"/><path class="cls-1" d="M297.91,139.93c-21.79,0-43.01-9.75-43.01-39.57,0-53.62,80.29-27.81,80.29-56.49,0-6.6-4.01-10.61-14.34-10.61s-17.21,6.02-19.5,18.64l-41.01-6.59c7.17-31.83,31.54-45.31,62.22-45.31,35.27,0,58.5,11.47,58.5,49.89v38.71c0,4.3.86,38.42,1.72,49.03h-41.01l-1.72-14.91h-.57c-9.75,12.04-24.37,17.2-41.58,17.2ZM301.92,95.77c0,8.03,5.74,12.33,13.77,12.33,12.9,0,20.07-8.32,20.07-21.22v-10.9c-12.04,9.46-33.84,4.02-33.84,19.79Z"/><path class="cls-1" d="M464.49,155.13c14.63,0,22.08-6.02,22.08-23.23v-15.48h-.57c-6.88,9.46-20.36,16.63-35.27,16.63-35.27,0-51.9-28.1-51.9-66.24S417.75,0,452.73,0c15.49,0,28.1,9.46,34.7,17.78h.57l.86-14.91h43.58v114.7c0,50.47-23.51,70.82-68.53,70.82-24.66,0-48.46-8.6-59.93-37.28l38.71-9.75c4.01,9.46,10.32,13.76,21.79,13.76ZM488,67.1c0-21.22-6.88-31.83-20.93-31.83s-21.51,10.61-21.51,31.83,7.17,32.69,21.51,32.69,20.93-10.61,20.93-32.69Z"/><path class="cls-1" d="M641.69,0c31.83,0,39.28,24.09,39.28,52.19v85.45h-45.88V61.08c0-12.33-.57-24.66-16.06-24.66-14.62,0-17.78,12.33-17.78,24.95v76.27h-45.88V2.87h43.59l1.15,18.93h.57c11.18-14.91,24.09-21.79,41.01-21.79Z"/><path class="cls-1" d="M742.61,140.5c-31.25,0-38.71-24.09-38.71-52.19V2.87h45.88v76.56c0,12.33.57,24.66,15.48,24.66,14.05,0,17.21-12.33,17.21-24.95V2.87h45.88v134.77h-43.58l-1.15-18.92h-.57c-10.9,14.91-23.8,21.79-40.43,21.79Z"/><path class="cls-1" d="M892.56,2.87l1.43,19.79h.57c8.31-15.48,20.65-22.65,35.55-22.65,19.21,0,29.25,7.74,35.84,22.65h.57c11.76-18.06,25.81-22.65,37.85-22.65,36.13,0,43.01,24.66,43.01,50.18v87.46h-45.88V60.79c0-12.33.57-24.37-12.9-24.37s-16.35,10.9-16.35,23.51v77.71h-45.88V60.79c0-12.33.57-24.37-12.91-24.37s-16.34,10.9-16.34,23.51v77.71h-45.88V2.87h41.29Z"/></g></svg>