<?xml version="1.0" encoding="UTF-8" standalone="no"?>
<!DOCTYPE svg PUBLIC "-//W3C//DTD SVG 1.1//EN" "http://www.w3.org/Graphics/SVG/1.1/DTD/svg11.dtd">
<svg width="100%" height="100%" viewBox="0 0 284 139" version="1.1" xmlns="http://www.w3.org/2000/svg" xmlns:xlink="http://www.w3.org/1999/xlink" xml:space="preserve" xmlns:serif="http://www.serif.com/" style="fill-rule:evenodd;clip-rule:evenodd;stroke-linejoin:round;stroke-miterlimit:2;">
    <g>
        <g>
            <path d="M14.1,76.8L16,75.6L16.6,76.8L29.9,76.8L29.6,68.1L22.5,68.1L15.7,67.4L8.3,67.4L8.5,62.4L8.8,59.8L8.5,55.1L19.3,54.7L20,46.8L9.2,46.8L9.2,35.7L17.7,35.7L19.9,35.9L20.2,26.7L1.3,26.7L1.6,29.6L0,76.8L14.1,76.8Z" style="fill-rule:nonzero;"/>
            <path d="M29.6,63.6L30.1,49.2L31.5,49.6L32.3,57.2L32.1,63.4L33.4,77L39.4,77L40.7,66.5L41.6,55.4L42.4,48.9L43.6,49.2L43,63.1L42,73.9L42.3,76.8L47.8,76.8L49.8,76.5L50.1,65.3L49.1,64.2L50,61.4L51.3,26.3L40.1,26.3L39.7,31.3L37.3,48L36.7,49.4L35.9,48.2L35.3,37.8L34.1,26.5L25.9,26.5L23.4,26.8L22.4,58.1L22.9,63.6L29.6,63.6Z" style="fill-rule:nonzero;"/>
            <path d="M62.9,69.4L63.1,68.9L64.2,36.1L63.3,34.4L64.5,30.9L64.6,25.8L60.7,26.3L55.4,26.7L53.6,76.8L62.7,76.8L62.9,69.4Z" style="fill-rule:nonzero;"/>
            <path d="M89.5,72.1L88.5,70.3L89.7,68L89.7,64.1L88.3,54L86.1,47.9L90.6,44.8L91,33.9L90.4,30.5L89.4,26.3L68.6,26.3L68.4,34.8L67.8,40.3L66.4,76.5L75.2,76L74.9,71.5L75.5,67.6L74.9,67L75.1,66.2L75.7,50.3L79.1,50.3L80.2,60L80.8,77.1L89.3,77.1L89.5,72.1ZM82.2,42.1L76,42.1L76.3,35.1L81.2,34.6L82.2,34.9L82.2,42.1Z" style="fill-rule:nonzero;"/>
            <path d="M102.3,69.5L106.5,68.8L107.2,76.8L115.5,76.8L114.3,66.5L114.3,54L112.6,40.5L97.8,40.3L96,47.6L94.5,57.9L93.6,67.9L92.3,77.3L100.6,77.9L102.3,69.5ZM103.8,50.2L105.9,50.1L106.2,56.6L107,64L102.5,64.5L103.8,50.2Z" style="fill-rule:nonzero;"/>
            <path d="M117.8,36.1L116.3,77.2L125.3,77L125.3,59.7L126.3,53.3L125.8,51.4L126.3,49L126.8,35.8L148.4,36.8L149.5,27.4L143.2,26.3L94.5,26.7L94,34.5L94.7,36.1L117.8,36.1Z" style="fill-rule:nonzero;"/>
            <path d="M146.4,50.2L148.7,50.4L148.9,41.4L130.3,41.8L129.1,70.8L129.4,72.4L129.3,76.8L148,76.8L148.3,67.3L138.4,67.3L137.4,62.7L146.1,62.7L146,59.2L146.4,57.9L146.5,54.3L138.4,54.3L138,52.8L138.1,50.2L146.4,50.2Z" style="fill-rule:nonzero;"/>
            <path d="M152.5,59.7L152.1,69.5L155.4,76.5L169.5,76.8L174.3,71.1L174.9,53L171.1,48.6L160.8,44.7L161,35.5L167.1,35.5L167.9,43.7L175.4,44.3L175.7,34.4L173.1,28.7L169.7,26.9L159.3,26.9L152.3,31.3L152.5,41.8L153.5,43.4L152.4,45.4L152.3,49.2L155.2,52.4L164.8,57L167.1,59.5L166.6,68.4L161.8,68.4L160.5,66.6L160.5,60.2L152.5,59.7Z" style="fill-rule:nonzero;"/>
            <path d="M191.3,76.8L191.7,61L201.4,61L206.4,58.2L207.4,30.2L203.4,27.1L199.7,26.7L184.2,26.7L183.5,46.4L183.6,47.7L183.1,65.5L184.4,67.3L183,70.2L183,76.5L185.9,76.8L191.3,76.8ZM192.6,34.6L199.4,34.6L198.8,52.7L192,52.7L192.6,34.6Z" style="fill-rule:nonzero;"/>
            <path d="M208.1,72.2L206.9,74.9L206.8,76.9L215.5,76.9L215.8,67L221.1,67L220.8,76.5L229.7,76.5L230,68.9L227.8,44.4L227.7,39.1L226.2,27.1L214,27.1L212.7,35.5L211,44L207.8,64.7L207.3,70.8L208.1,72.2ZM217.8,47.3L219.3,39.2L221.1,39L221.1,60L216.1,60.2L217.8,47.3Z" style="fill-rule:nonzero;"/>
            <path d="M241.6,71.5L242.2,67.6L241.6,67L241.8,66.2L242.4,50.3L245.7,50.3L246.8,60L247.4,77.1L255.9,77.1L256.1,72L255.1,70.2L256.3,67.9L256.3,64L255.1,54L253,47.9L257.5,44.8L257.9,33.9L257.3,30.5L256.3,26.3L235.4,26.3L235.2,34.8L234.6,40.3L233.2,76.5L242,76L241.6,71.5ZM243,35.1L247.9,34.6L248.9,34.9L248.9,42.1L242.8,42.1L243,35.1Z" style="fill-rule:nonzero;"/>
            <path d="M269.2,56.7L270.4,54.3L272.6,59.8L272.6,72.1L273.5,76.4L281.3,76.4L279.4,57.2L275.6,49.2L281.5,39.5L282.1,36.4L283.5,27.5L280.2,27L275.1,27L274,34L272.8,40.2L269.2,46L269.9,26.5L262,26.5L261.9,29.2L262.9,31.9L261.7,34L261.5,39.5L261.3,40.1L260,76.1L268.6,76.1L269.2,56.7Z" style="fill-rule:nonzero;"/>
            <path d="M151.4,81.9L128.5,81.9L128.3,91.3L127.6,97.3L126.1,137.1L135.8,136.5L135.5,131.6L136.2,127.4L135.6,126.7L135.9,125.9L136.5,108.5L140.2,108.5L141.4,119.1L142.1,137.9L151.4,137.9L151.6,132.3L150.5,130.4L151.8,127.9L151.8,123.7L150.3,112.4L147.9,105.7L152.8,102.3L153.2,90.3L152.5,86.5L151.4,81.9ZM143.3,99.4L136.6,99.4L136.9,91.7L142.2,91.1L143.3,91.4L143.3,99.4Z" style="fill-rule:nonzero;"/>
            <path d="M195.9,106.3L196.7,109.5L204.2,109.5L205.2,105.1L203.3,96.6L186.1,96.2L180.3,99.4L179.7,116L181.3,118.7L193.2,120.4L195.6,122.3L195.4,127.4L189.9,127.8L188.5,125.8L188.3,123.3L179.1,123.7L179.1,128.8L181.1,136.9L198.5,136.4L203.6,132.3L204.5,116.7L202.2,114.8L192.5,112.8L188.8,111.4L188.8,106.3L195.9,106.3Z" style="fill-rule:nonzero;"/>
            <path d="M205.7,83L202.3,82.4L157.3,82.7L156.8,97.1L157.8,98.7L156.4,100.9L155.2,124.7L155.4,131.3L155.2,137.5L173.5,137.5L175.7,135.1L175.9,127.5L164.9,127.5L164.9,118.8L164.6,113.5L176.7,113.5L177.1,104.6L165.6,105L165.2,101.4L165.5,92L205.2,92L205.7,83Z" style="fill-rule:nonzero;"/>
            <path d="M233.2,117L234,90.7L230.5,83.7L227.7,81.9L213.8,81.9L209.6,89.5L209.3,98.6L208.8,99.9L207.7,131.8L211.5,135.6L216.6,137.8L226.3,137.8L229.8,134L232.8,126.7L232.9,122.9L232.1,120.5L233.2,117ZM223.9,116.9L223.9,122L223.3,128L220.9,127.7L217.6,128L217.8,125.2L217.4,124.7L217.7,121.9L218.7,94.2L220,91.1L224.9,91.1L223.9,116.9Z" style="fill-rule:nonzero;"/>
            <path d="M238.4,82.1L238,92.6L266.3,92.6L265.3,120.8L265.5,123.6L264.9,125.6L264.6,137.5L273.6,137.5L274.2,129.4L273.6,126L274.6,124L275.7,93.6L282.4,92.6L283.5,91.6L283.5,82.6L242.3,82.6L238.4,82.1Z" style="fill-rule:nonzero;"/>
            <path d="M259.1,96.6L237.8,96.5L237.5,102.8L238,106.1L237.4,107.2L236.4,137.6L245.3,137.6L246.3,123.4L249.5,123.4L250.6,131L251.4,138L261.7,137.2L259.3,127.7L257.2,120.8L262.4,117L262.7,105.3L261.9,101.1L259.1,96.6ZM252.8,114.1L246,114.1L246.3,106.2L253.1,106.2L252.8,114.1Z" style="fill-rule:nonzero;"/>
            <path d="M26.1,116.7L29,123L46.9,123L50,118.1L50.8,112.3L51.8,85.3L46.3,82.2L28.3,82.4L26.3,88.6L25.7,105.3L26.9,107.1L25.4,109.1L26.1,116.7ZM35.2,108.8L35.2,97.7L35.3,91.9L41.3,91.9L40.9,102.3L40.9,110.6L39.9,113.7L34.9,113.7L35.2,108.8Z" style="fill-rule:nonzero;"/>
            <path d="M14.5,137.2L49.8,137.2L49.8,126.9L10.2,126.9L24.3,88.8L24.5,82L18.5,82.4L9.8,81.6L5.9,82.3L1.7,82.3L1.3,92.4L14.1,92.4L8,107.5L4.4,118.3L0.2,130.4L0,136.9L10.2,138.3L14.5,137.2Z" style="fill-rule:nonzero;"/>
            <path d="M73.2,81.6L59.3,81.6L55.1,89.2L54.8,98.3L54.3,99.6L53.2,131.5L57,135.3L62.1,137.5L71.8,137.5L75.3,133.7L78.3,126.4L78.4,122.6L77.6,120.2L78.7,116.7L79.5,90.4L76,83.4L73.2,81.6ZM69.5,116.6L69.5,121.7L68.9,127.7L66.5,127.4L63.2,127.7L63.4,124.9L63,124.4L63.3,121.6L64.3,93.9L65.6,90.8L70.5,90.8L69.5,116.6Z" style="fill-rule:nonzero;"/>
            <path d="M116.5,137.6L118.4,138.5L119.8,138.6L120,132.4L113,132L113.1,128.2L119.8,128.6L120,122.3L114.6,122L97.3,123L93.5,123L85,123.8L84.7,132.4L90.6,133.5L96.6,134.9L111.2,137.6L115.5,138.1L116.5,137.6ZM99,130.2L93.3,129L93.2,127.7L108.1,128.1L108.1,131.6L99,130.2Z" style="fill-rule:nonzero;"/>
            <path d="M104.2,112.1L116.8,109.9L120.2,109.8L120.5,102.5L85.2,100.2L85.1,104.3L86.7,105.5L107.3,106.8L107.5,107.5L93,108.6L85.1,110.1L84.8,112.5L84.6,117.7L87.9,117.8L90.3,117.4L91.2,118.1L116.5,119.8L119.9,119.7L120.1,114.7L100.1,113.4L97.3,113.1L99.3,112.6L104.2,112.1Z" style="fill-rule:nonzero;"/>
            <path d="M85.4,97.7L90.1,98L90.9,96.8L115.2,98.3L115.4,99.6L120.6,99.8L121.1,97L121.4,86.1L118.7,84.6L116.1,82.9L97.8,81.7L96.7,82.6L94.5,81.5L91.1,81.3L85.7,83.8L85.4,97.7ZM91.2,88.1L92.9,87.5L113.6,88.8L114.9,89.9L114.8,92.9L92.4,91.4L91.1,91.1L91.2,88.1Z" style="fill-rule:nonzero;"/>
        </g>
        <g>
            <path d="M15.3,11.4C15.3,13.2 15,14.6 14.3,15.8C13.6,16 12.7,16.2 11.5,16.4C10.3,16.5 9,16.6 7.6,16.6C5,16.6 2.4,16.3 0,15.8C0.2,14.2 0.5,12.7 1,11.2C3.6,11.6 6.3,11.8 8.9,11.8C9.9,11.8 10.8,11.8 11.7,11.7C11.5,11.1 11.4,10.5 11.2,9.9C11,9.3 10.9,9 10.8,8.8L14.8,7.9C15.2,9.1 15.3,10.2 15.3,11.4ZM9.5,8.9C9.1,9.5 8.8,9.9 8.5,10.1C8.2,9.9 7.8,9.7 7.3,9.3C6.8,9 6.4,8.7 6.2,8.5C6,8.8 5.8,9.1 5.5,9.4C5.3,9.7 5.1,9.9 4.9,10C4.6,9.9 4.1,9.6 3.6,9.3C3.1,8.9 2.7,8.6 2.5,8.4C2.6,8 2.9,7.5 3.3,7C3.7,6.5 4,6.1 4.3,6.1C4.6,6.1 5,6.3 5.5,6.7C6,7.1 6.4,7.4 6.5,7.6C6.7,7.2 7,6.8 7.2,6.5C7.5,6.2 7.7,6.1 7.9,6.1C8.2,6.1 8.6,6.3 9.2,6.7C9.8,7.1 10.1,7.4 10.1,7.7C10.1,7.9 9.9,8.3 9.5,8.9Z" style="fill-rule:nonzero;"/>
            <path d="M28,11.2C28,12.1 27.9,13 27.7,13.8C27.5,14.6 27.3,15.3 26.9,15.8C26.2,16 25.5,16.2 24.6,16.3C23.7,16.4 22.8,16.5 21.9,16.5C21,16.5 20.2,16.4 19.4,16.3C18.6,16.2 17.9,16 17.3,15.8C17.1,15.2 17,12.5 16.9,7.6L16.7,2.5L20.7,2.3C21,4.8 21.1,7 21.1,9.1C21.1,9.7 21.1,10.6 21,11.7C21.6,11.8 22.1,11.8 22.7,11.8C23.4,11.8 23.9,11.7 24.4,11.6C24.3,11 24,10 23.5,8.8L27.5,7.9C27.9,8.8 28,9.9 28,11.2ZM23.5,6.3C22.9,5.9 22.5,5.6 22.3,5.3C22.4,5.1 22.5,4.8 22.7,4.4C22.9,4 23.1,3.7 23.4,3.4C23.7,3.1 23.9,2.9 24.1,2.9C24.3,2.9 24.6,3 24.9,3.2C25.3,3.4 25.6,3.6 26,3.9C26.3,4.2 26.5,4.4 26.5,4.6C26.6,4.9 26.4,5.3 25.9,5.9C25.5,6.5 25.1,6.9 24.8,7.1C24.5,7 24.1,6.7 23.5,6.3Z" style="fill-rule:nonzero;"/>
            <path d="M29.7,16.4C29.8,15.1 29.8,13.7 29.8,12.2C29.8,9.5 29.7,6.3 29.5,2.4L33.6,2.2C33.8,5.4 33.9,8.5 33.9,11.3C33.9,13.1 33.9,14.6 33.8,15.7C33.4,15.9 32.9,16.1 32.1,16.2C31.3,16.3 30.6,16.4 29.8,16.4L29.7,16.4Z" style="fill-rule:nonzero;"/>
            <path d="M45.4,12.4C45.5,12.8 45.5,13.4 45.5,14.2C45.5,15 45.4,15.6 45.3,16C45.2,16.4 45,16.6 44.8,16.6C44.2,16.6 43.5,16.5 42.8,16.4C42.4,17.6 41.8,18.8 41.2,19.9C40.5,21 39.9,22 39.2,22.8C38.7,22.6 38,22.2 37.2,21.7C36.4,21.2 35.8,20.7 35.4,20.2L35.8,19.8C37.2,18.3 38.3,17.1 39,16C38,15.8 37.2,15.4 36.5,14.8C35.8,14.2 35.5,13.4 35.5,12.5C35.5,11.7 35.7,10.8 36.2,10C36.7,9.1 37.2,8.4 37.9,7.9C38.6,7.3 39.3,7.1 40,7.1C40.7,7.1 41.4,7.3 41.9,7.8C42.4,8.3 42.8,8.9 43.1,9.6C43.4,10.3 43.6,11.1 43.6,11.9C44.1,11.9 44.5,12 44.8,12C45.1,11.8 45.3,12 45.4,12.4ZM39.4,11.9C39.8,12 40.2,12 40.7,12L41.5,12C41.2,11.6 40.9,11.4 40.4,11.1C40,10.9 39.6,10.8 39.2,10.8C38.9,10.8 38.7,10.9 38.5,11C38.3,11.1 38.2,11.3 38.2,11.5C38.2,11.6 38.6,11.8 39.4,11.9Z" style="fill-rule:nonzero;"/>
            <path d="M55.2,12.4C55.3,12.8 55.3,13.4 55.3,14.2C55.3,15 55.2,15.6 55.1,16C55,16.4 54.8,16.6 54.6,16.6C53.8,16.6 53.1,16.4 52.4,16.1C51.7,15.8 51.1,15.4 50.7,14.8L50.5,14.8C49.6,15.5 48.7,16 47.8,16.2C46.8,16.4 45.8,16.6 44.8,16.6C44.5,16.6 44.4,16.4 44.3,16C44.2,15.6 44.1,15 44.1,14.2C44.1,13.4 44.1,12.8 44.2,12.4C44.3,12 44.5,11.8 44.7,11.8C46,11.8 47.1,11.6 47.9,11.2C48.8,10.8 49.4,10.1 49.9,9.1L52,9.4L52,10C52,10.7 52.2,11.2 52.6,11.4C53,11.6 53.6,11.8 54.6,11.8C54.9,11.8 55.1,12 55.2,12.4ZM51.8,21C51.4,21.6 51.1,22 50.8,22.2C50.5,22.1 50.1,21.8 49.6,21.5C49.1,21.2 48.8,20.9 48.5,20.6C48.3,20.9 48.1,21.2 47.8,21.5C47.5,21.8 47.3,22 47.1,22.2C46.8,22 46.3,21.8 45.8,21.4C45.3,21 44.9,20.7 44.7,20.5C44.8,20.1 45.1,19.7 45.5,19.1C45.9,18.5 46.2,18.2 46.5,18.2C46.8,18.2 47.2,18.4 47.7,18.8C48.2,19.2 48.6,19.5 48.7,19.7C48.9,19.3 49.2,18.9 49.4,18.6C49.7,18.3 49.9,18.2 50.1,18.2C50.4,18.2 50.8,18.4 51.4,18.8C52,19.2 52.3,19.5 52.3,19.8C52.4,20.1 52.2,20.5 51.8,21Z" style="fill-rule:nonzero;"/>
            <path d="M69.2,12.4C69.3,12.8 69.3,13.4 69.3,14.2C69.3,15 69.2,15.6 69.1,16C69,16.4 68.8,16.6 68.6,16.6C67.7,16.6 66.8,16.4 66,16C65.2,15.6 64.6,15 64.2,14.3C63.3,14.4 62.4,14.6 61.4,14.9C60.9,15.1 60.5,15.2 60.1,15.4C59.1,15.8 58.2,16.1 57.4,16.3C56.6,16.5 55.7,16.6 54.6,16.6C54.3,16.6 54.2,16.4 54.1,16C54,15.6 53.9,15 53.9,14.2C53.9,13.4 53.9,12.8 54,12.4C54.1,12 54.3,11.8 54.5,11.8C55.4,11.8 56.2,11.7 56.8,11.6C57.4,11.5 58.3,11.3 59.3,11L59.9,10.8L61.5,10.4C60.9,10 60.3,9.8 59.9,9.6C59.4,9.4 58.9,9.3 58.4,9.2C57.9,9.1 57.2,9.1 56.3,9L55.7,9L55.6,8.9C55.9,8.4 56,7.7 56.2,7C56.4,6.2 56.6,5.6 56.8,5.3C57.2,5.2 57.5,5.2 57.8,5.2C58.4,5.2 59,5.3 59.5,5.5C60,5.7 60.6,6 61.1,6.3L62,6.9C63.4,7.8 64.5,8.5 65.2,8.9C65.9,9.3 66.4,9.5 66.7,9.5C66.6,10.3 66.6,11 66.4,11.6C67,11.7 67.8,11.8 68.6,11.8C69,11.8 69.1,12 69.2,12.4Z" style="fill-rule:nonzero;"/>
            <path d="M77.2,12.4C77.3,12.8 77.3,13.4 77.3,14.2C77.3,15 77.2,15.6 77.1,16C77,16.4 76.8,16.6 76.6,16.6C75.9,16.6 75.2,16.5 74.5,16.3C73.8,16.1 73.3,15.8 72.8,15.5C71.7,16.3 70.3,16.7 68.6,16.7C68.3,16.7 68.2,16.5 68.1,16.1C68,15.7 67.9,15.1 67.9,14.3C67.9,13.5 67.9,12.9 68,12.5C68.1,12.1 68.3,11.9 68.5,11.9C69.5,11.9 70.5,11.9 71.3,11.8C71.2,10.6 71.1,9.2 71,7.5C70.8,5.8 70.7,4.7 70.7,4.2C70.6,3.8 70.6,3.3 70.5,2.5L74.6,2.3C74.8,5.5 74.9,8.6 75,11.3L75,11.8L76.5,11.8C76.9,11.8 77.1,12 77.2,12.4Z" style="fill-rule:nonzero;"/>
            <path d="M83,10.9C83,11.9 82.9,12.8 82.8,13.6C82.6,14.4 82.4,15.2 82,15.9C80.8,16.3 79.1,16.5 76.6,16.5C76.3,16.5 76.2,16.3 76.1,15.9C76,15.5 75.9,14.9 75.9,14.1C75.9,13.3 75.9,12.7 76,12.3C76.1,11.9 76.3,11.7 76.5,11.7C77.6,11.7 78.5,11.7 79.3,11.6C79.3,10.6 79.2,9.4 79.1,8C79,6.6 78.8,5.2 78.7,3.9L78.5,2.4L82.5,2.2C82.9,6.2 83,9 83,10.9Z" style="fill-rule:nonzero;"/>
            <path d="M103.9,11.4C103.9,13.2 103.6,14.6 102.9,15.8C102.2,16 101.3,16.2 100.1,16.4C98.9,16.5 97.6,16.6 96.2,16.6C93.6,16.6 91,16.3 88.6,15.8C88.8,14.2 89.1,12.7 89.6,11.2C92.2,11.6 94.9,11.8 97.5,11.8C98.5,11.8 99.4,11.8 100.3,11.7C100.1,11.1 100,10.5 99.8,9.9C99.6,9.3 99.5,9 99.4,8.8L103.4,7.9C103.7,9.1 103.9,10.2 103.9,11.4ZM98.1,8.9C97.7,9.5 97.4,9.9 97.1,10.1C96.8,10 96.4,9.7 95.9,9.4C95.4,9 95,8.7 94.8,8.5C94.6,8.8 94.4,9.1 94.1,9.4C93.8,9.7 93.6,9.9 93.4,10.1C93.1,9.9 92.6,9.7 92.1,9.3C91.6,8.9 91.2,8.6 91,8.4C91.2,8 91.4,7.5 91.8,7C92.2,6.4 92.5,6.1 92.8,6.1C93.1,6.1 93.5,6.3 94,6.7C94.5,7.1 94.9,7.4 95,7.6C95.2,7.2 95.5,6.8 95.7,6.5C96,6.2 96.2,6.1 96.4,6.1C96.7,6.1 97.1,6.3 97.7,6.7C98.3,7.1 98.6,7.4 98.6,7.7C98.7,7.9 98.5,8.3 98.1,8.9Z" style="fill-rule:nonzero;"/>
            <path d="M105.6,16.4C105.7,15.1 105.7,13.7 105.7,12.2C105.7,9.5 105.6,6.3 105.4,2.4L109.5,2.2C109.7,5.4 109.8,8.5 109.8,11.3C109.8,13.1 109.8,14.6 109.7,15.7C109.3,15.9 108.8,16.1 108,16.2C107.2,16.3 106.5,16.4 105.7,16.4L105.6,16.4Z" style="fill-rule:nonzero;"/>
            <path d="M110.8,21.8C110,21.3 109.4,20.8 109.1,20.4C109.9,19.2 110.7,17.8 111.5,16.2C112.3,14.5 113,12.8 113.5,11.1L117,12.3C116.7,14 116.2,15.8 115.4,17.7C114.9,18.9 114.5,20 114,21C113.5,22 113.2,22.6 112.9,23C112.2,22.7 111.6,22.3 110.8,21.8Z" style="fill-rule:nonzero;"/>
            <path d="M124.2,12.4C124.3,12.8 124.3,13.4 124.3,14.2C124.3,15 124.2,15.6 124.1,16C124,16.4 123.8,16.6 123.6,16.6C122.7,16.6 121.8,16.5 120.9,16.4C120,16.3 119.3,16.1 118.7,15.8C118.5,15.2 118.4,12.5 118.3,7.6L118.1,2.5L122.1,2.3C122.3,4.8 122.3,7.1 122.3,9.2C122.3,9.8 122.3,10.7 122.2,11.8C122.6,11.9 123,11.9 123.4,11.9C123.9,11.8 124.1,12 124.2,12.4Z" style="fill-rule:nonzero;"/>
            <path d="M133.7,7.6C134.3,8 134.7,8.6 135,9.4C135.3,10.2 135.5,11 135.5,12C135.5,13.3 135.2,14.4 134.6,15.3C134,16.2 133.2,16.6 132.2,16.6C131.5,16.6 130.8,16.4 130.1,16C129.4,15.6 128.7,15.1 128,14.5C127.4,15.1 126.8,15.6 126.1,15.9C125.4,16.2 124.5,16.4 123.6,16.4C123.3,16.4 123.2,16.2 123.1,15.8C123,15.4 122.9,14.8 122.9,14C122.9,13.2 122.9,12.6 123,12.2C123.1,11.8 123.3,11.6 123.5,11.6C124.3,11.6 124.9,11.5 125.5,11.2C126.1,11 126.5,10.7 126.9,10.3C127.3,9.9 127.7,9.5 128.2,8.9C128.8,8.2 129.3,7.6 129.8,7.3C130.3,7 131,7 131.7,7C132.5,7 133.1,7.2 133.7,7.6ZM132.9,12.2C133.2,12.1 133.3,12.1 133.4,12C133.4,11.8 133.2,11.6 132.9,11.4C132.6,11.2 132.2,11.1 131.6,11.1C130.8,11.1 130.2,11.3 129.6,11.6C129.9,11.8 130.3,12 130.7,12.1C131.1,12.2 131.6,12.3 132,12.3C132.3,12.3 132.6,12.3 132.9,12.2Z" style="fill-rule:nonzero;"/>
            <path d="M146.6,11.3C146.8,11.8 146.8,12.4 146.8,13.1C146.8,14.2 146.6,15.1 146.2,15.8C145.7,16 144.8,16.1 143.4,16.3C142,16.4 140.4,16.5 138.4,16.5C138.1,16 137.8,15.3 137.5,14.3C137.2,13.4 137.1,12.6 137.1,12C138,11.2 139.1,10.4 140.4,9.7C138.7,8.7 137.4,8 136.7,7.6L138.5,3.5C139.2,3.8 139.9,4.3 140.8,4.9C141.7,5.5 142.5,6.2 143.2,6.9C143.2,6.4 143.1,5.9 143,5.1C142.9,4.4 142.9,3.8 142.8,3.4C142.8,3.2 142.7,2.9 142.7,2.5L146.8,2.3C146.9,3.1 146.9,3.8 146.9,4.4C146.9,5.7 146.8,6.7 146.6,7.4C146.4,8.1 146,8.8 145.5,9.4C146,10.1 146.4,10.8 146.6,11.3ZM143.2,20.3C143.2,20.5 143.1,20.9 142.9,21.3C142.7,21.7 142.6,22 142.5,22.1C142,22.1 141.3,22.2 140.6,22.3C139.9,22.4 139.2,22.5 138.6,22.7C138.5,22.6 138.5,22.4 138.4,22.2C138.4,22 138.3,21.7 138.3,21.5C138.3,21.2 138.3,21.1 138.4,21C138.7,20.9 139.1,20.7 139.5,20.6C139.1,20.2 139,19.7 139,19.3C139,18.9 139.1,18.6 139.3,18.3C139.5,18 139.8,17.7 140.2,17.5C140.5,17.3 140.9,17.2 141.2,17.2C141.5,17.2 141.7,17.3 141.9,17.4C142.3,17.6 142.5,18 142.5,18.4C142.5,18.7 142.4,19 142.2,19.3C141.9,19.1 141.6,19.1 141.3,19.1C141.1,19.1 140.9,19.1 140.8,19.2C140.7,19.3 140.6,19.4 140.6,19.6C140.6,19.8 140.7,20.1 140.9,20.3C141.6,20.2 142.2,20.1 142.8,20.1L143.3,20.1L143.2,20.3ZM142.5,10.7C141.7,11.2 141,11.6 140.5,12.1C141.7,12.1 142.9,12 144.1,11.9C143.7,11.4 143.1,11 142.5,10.7Z" style="fill-rule:nonzero;"/>
            <path d="M148.9,16.4C149,15.1 149,13.7 149,12.2C149,9.5 148.9,6.3 148.7,2.4L152.8,2.2C153,5.4 153.1,8.5 153.1,11.3C153.1,13.1 153.1,14.6 153,15.7C152.6,15.9 152.1,16.1 151.3,16.2C150.5,16.3 149.8,16.4 149,16.4L148.9,16.4Z" style="fill-rule:nonzero;"/>
            <path d="M169.7,12.4C169.8,12.8 169.8,13.4 169.8,14.2C169.8,15 169.7,15.6 169.6,16C169.5,16.4 169.3,16.6 169.1,16.6C168.2,16.6 167.3,16.4 166.6,16.1C165.8,15.8 165.2,15.2 164.8,14.4C163.7,15 162.6,15.3 161.6,15.3C160.8,15.1 160.2,14.6 159.6,13.9C159,13.2 158.7,12.4 158.7,11.4C158.7,10.5 159,9.8 159.5,9.1C160,8.4 160.5,7.9 161,7.6C161.5,7.3 162.2,6.8 163.2,6.3C163.3,6.2 163.4,6 163.5,5.9C163.6,5.8 163.7,5.6 163.8,5.5C164.2,5.4 164.8,5.2 165.5,5.1C166.3,5 166.9,4.9 167.3,4.9L167.5,5.1C167.5,7 167.6,8.7 167.8,10.4C167.9,11 168,11.3 168.2,11.6C168.4,11.8 168.8,11.9 169.2,11.9C169.4,11.8 169.6,12 169.7,12.4ZM168.3,2.8C167.9,3.4 167.6,3.8 167.3,4C167,3.9 166.6,3.6 166.1,3.3C165.6,3 165.3,2.7 165,2.4C164.8,2.7 164.6,3 164.3,3.3C164,3.6 163.8,3.8 163.6,4C163.3,3.8 162.8,3.6 162.3,3.2C161.8,2.8 161.4,2.5 161.2,2.3C161.3,1.9 161.6,1.5 162,0.9C162.4,0.3 162.7,0 163,0C163.3,0 163.7,0.2 164.2,0.6C164.7,1 165.1,1.3 165.2,1.5C165.4,1.1 165.7,0.7 165.9,0.4C166.2,0.1 166.4,0 166.6,0C166.9,0 167.3,0.2 167.9,0.6C168.5,1 168.8,1.3 168.8,1.6C168.9,1.8 168.7,2.2 168.3,2.8ZM162.8,10.7C163,10.7 163.3,10.7 163.8,10.6C163.7,10.1 163.7,9.6 163.6,9.1C163.1,9.3 162.7,9.5 162.4,9.7C162.1,9.9 161.8,10.2 161.5,10.5C161.9,10.7 162.3,10.7 162.8,10.7Z" style="fill-rule:nonzero;"/>
            <path d="M178.7,12.4C178.8,12.8 178.8,13.4 178.8,14.2C178.8,15 178.7,15.6 178.6,16C178.5,16.4 178.3,16.6 178.1,16.6C177.3,16.6 176.5,16.4 175.9,15.9C174.6,16.3 172.3,16.6 169.1,16.6C168.8,16.6 168.7,16.4 168.6,16C168.5,15.6 168.4,15 168.4,14.2C168.4,13.4 168.4,12.8 168.5,12.4C168.6,12 168.8,11.8 169,11.8L169.5,11.8C169.5,11 169.7,10.3 170.1,9.5C170.5,8.7 171,8.1 171.6,7.6C172.2,7.1 172.9,6.8 173.7,6.8C174.8,6.8 175.6,7.3 176.3,8.2C176.9,9.1 177.3,10.2 177.3,11.6L177.3,11.9L178.1,11.9C178.4,11.8 178.6,12 178.7,12.4ZM176.3,4.1C175.9,4.7 175.6,5.1 175.3,5.3C175,5.2 174.6,4.9 174.1,4.6C173.6,4.3 173.3,4 173,3.7C172.8,4 172.6,4.3 172.3,4.6C172,4.9 171.8,5.1 171.6,5.3C171.3,5.1 170.8,4.9 170.3,4.5C169.8,4.1 169.4,3.8 169.2,3.6C169.3,3.2 169.6,2.8 170,2.2C170.4,1.6 170.7,1.3 171,1.3C171.3,1.3 171.7,1.5 172.2,1.9C172.7,2.3 173.1,2.6 173.2,2.8C173.4,2.4 173.7,2 173.9,1.7C174.2,1.4 174.4,1.3 174.6,1.3C174.9,1.3 175.3,1.5 175.9,1.9C176.5,2.3 176.8,2.6 176.8,2.9C176.9,3.1 176.7,3.5 176.3,4.1ZM175.4,11.6C175.1,11.3 174.8,11.1 174.4,10.9C174,10.7 173.6,10.6 173.2,10.6C172.9,10.6 172.6,10.7 172.4,10.8C172.2,11 172.1,11.2 172.1,11.4C172.3,11.6 172.8,11.7 173.7,11.7C174.2,11.7 174.8,11.7 175.4,11.6Z" style="fill-rule:nonzero;"/>
            <path d="M185.8,11.1C185.8,12 185.7,12.8 185.5,13.7C185.3,14.5 185.1,15.2 184.7,15.7C184,15.9 183.1,16.1 181.9,16.2C180.7,16.3 179.5,16.4 178.1,16.4C177.8,16.4 177.7,16.2 177.6,15.8C177.5,15.4 177.4,14.8 177.4,14C177.4,13.2 177.4,12.6 177.5,12.2C177.6,11.8 177.8,11.6 178,11.6C179.8,11.6 181.1,11.5 182,11.3C181.9,10.7 181.7,10.2 181.5,9.6C181.3,9 181.2,8.7 181.2,8.6L185.2,7.7C185.6,8.9 185.8,10 185.8,11.1ZM184.7,21C184.3,21.6 184,22 183.7,22.2C183.4,22.1 183,21.8 182.5,21.5C182,21.2 181.7,20.9 181.4,20.6C181.2,20.9 181,21.2 180.7,21.5C180.4,21.8 180.2,22 180,22.2C179.7,22 179.2,21.8 178.7,21.4C178.2,21 177.8,20.7 177.6,20.5C177.7,20.1 178,19.7 178.4,19.1C178.8,18.5 179.1,18.2 179.4,18.2C179.7,18.2 180.1,18.4 180.6,18.8C181.1,19.2 181.5,19.5 181.6,19.7C181.8,19.3 182.1,18.9 182.3,18.6C182.6,18.3 182.8,18.2 183,18.2C183.3,18.2 183.7,18.4 184.3,18.8C184.9,19.2 185.2,19.5 185.2,19.8C185.3,20.1 185.1,20.5 184.7,21Z" style="fill-rule:nonzero;"/>
            <path d="M199.4,12.4C199.5,12.8 199.5,13.4 199.5,14.2C199.5,15 199.4,15.6 199.3,16C199.2,16.4 199,16.6 198.8,16.6C198.1,16.6 197.5,16.4 196.8,16.1C196.1,15.8 195.5,15.3 194.9,14.6C194.7,14.9 194.4,15.4 194,16C193.6,16.2 193,16.4 192.3,16.5C191.6,16.6 190.8,16.7 190,16.7C189,16.7 188.1,16.6 187.3,16.4C187.4,14.9 187.6,13.4 188.1,11.9C189,12 189.7,12 190.3,12C191.3,12 192.2,11.9 193.1,11.7C192.2,10.1 191.2,8.6 190.1,7.2L193.6,4.3C194.2,5.2 194.7,6 195.1,6.7C195.5,7.5 195.9,8.5 196.4,9.7C196.7,10.3 196.9,10.8 197.1,11.1C197.3,11.4 197.5,11.6 197.8,11.8C198.1,11.9 198.4,12 198.9,12C199.1,11.8 199.3,12 199.4,12.4Z" style="fill-rule:nonzero;"/>
            <path d="M206.2,6.9C207.6,7.8 208.7,8.5 209.4,8.9C210.1,9.3 210.6,9.5 210.9,9.5C210.8,10.5 210.7,11.3 210.6,11.9C210.5,12.5 210.2,13.3 209.8,14.2C209.4,14.2 209,14.1 208.8,14.1C207.8,14.1 206.7,14.3 205.5,14.7C205,14.9 204.6,15 204.2,15.2C203.2,15.6 202.3,15.9 201.5,16.1C200.7,16.3 199.8,16.4 198.7,16.4C198.4,16.4 198.3,16.2 198.2,15.8C198.1,15.4 198,14.8 198,14C198,13.2 198,12.6 198.1,12.2C198.2,11.8 198.4,11.6 198.6,11.6C199.5,11.6 200.3,11.5 200.9,11.4C201.5,11.3 202.4,11.1 203.4,10.8L204,10.6L205.6,10.2C205,9.8 204.4,9.6 204,9.4C203.5,9.2 203,9.1 202.5,9C202,8.9 201.3,8.9 200.4,8.8L199.8,8.8L200,9.1C200.1,8.5 200.2,7.8 200.4,7C200.6,6.2 200.8,5.6 201,5.3C201.4,5.2 201.7,5.2 202,5.2C202.6,5.2 203.2,5.3 203.7,5.5C204.2,5.7 204.8,6 205.3,6.3L206.2,6.9Z" style="fill-rule:nonzero;"/>
            <path d="M222.5,7.8C223.1,8.4 223.5,9.1 223.8,10C224.1,10.9 224.2,11.8 224.1,12.6C224,14.4 223.5,16.2 222.6,18.1C221.7,19.9 220.7,21.5 219.7,22.7C219.2,22.5 218.5,22.1 217.7,21.6C216.9,21.1 216.3,20.6 215.9,20.1L216.3,19.7C217.7,18.2 218.8,17 219.5,15.9C218.5,15.7 217.7,15.3 217,14.7C216.3,14.1 216,13.3 216,12.4C216,11.6 216.2,10.7 216.7,9.9C217.2,9 217.7,8.3 218.4,7.8C219.1,7.2 219.8,7 220.5,7C221.2,6.9 221.9,7.2 222.5,7.8ZM221.1,11.9L221.9,11.9C221.6,11.5 221.3,11.3 220.8,11C220.4,10.8 220,10.7 219.6,10.7C219.3,10.7 219.1,10.8 218.9,10.9C218.7,11 218.6,11.2 218.6,11.4C218.7,11.6 219.1,11.7 219.9,11.8C220.2,11.9 220.6,11.9 221.1,11.9Z" style="fill-rule:nonzero;"/>
            <path d="M240.4,12.4C240.5,12.8 240.5,13.4 240.5,14.2C240.5,15 240.4,15.6 240.3,16C240.2,16.4 240,16.6 239.8,16.6C238.5,16.6 237.4,16.4 236.6,16C235.8,15.6 235.2,15 234.8,14.4C234.1,14.8 233.6,15.3 233.2,15.8C232.8,16.3 232.6,16.9 232.6,17.4C232.6,18.3 233,18.9 233.9,19.3C234.7,19.7 235.8,19.9 237.1,19.9C237.4,19.9 237.9,19.9 238.4,19.8C238.5,20.2 238.6,20.9 238.8,21.9C238.9,22.8 239,23.5 239,23.9C238.2,24.1 237.3,24.2 236.3,24.2C234.9,24.2 233.7,24 232.6,23.5C231.5,23 230.6,22.3 230,21.5C229.4,20.6 229,19.5 229,18.3C229,16.8 229.4,15.5 230.3,14.3C231.1,13.1 232.2,12.1 233.6,11.3C233.1,10.6 232.4,10.3 231.5,10.3C231.4,10.1 231.3,9.7 231.2,9.1C231.1,8.5 231.1,8 231.1,7.5C232.8,6.8 234.3,6.4 235.8,6.4C236.9,6.4 237.8,6.6 238.4,7.1C239,7.6 239.4,8.2 239.4,9.1C239,10 238.5,11 237.8,11.9C238.3,12 239,12 239.8,12C240.1,11.8 240.3,12 240.4,12.4Z" style="fill-rule:nonzero;"/>
            <path d="M254.4,12.4C254.5,12.8 254.5,13.4 254.5,14.2C254.5,15 254.4,15.6 254.3,16C254.2,16.4 254,16.6 253.8,16.6C252.9,16.6 252,16.4 251.2,16C250.4,15.6 249.8,15 249.4,14.3C248.5,14.4 247.6,14.6 246.6,14.9C246.1,15.1 245.7,15.2 245.3,15.4C244.3,15.8 243.4,16.1 242.6,16.3C241.8,16.5 240.9,16.6 239.8,16.6C239.5,16.6 239.4,16.4 239.3,16C239.2,15.6 239.1,15 239.1,14.2C239.1,13.4 239.1,12.8 239.2,12.4C239.3,12 239.5,11.8 239.7,11.8C240.6,11.8 241.4,11.7 242,11.6C242.6,11.5 243.5,11.3 244.5,11L245.1,10.8L246.7,10.4C246.1,10 245.5,9.8 245.1,9.6C244.6,9.4 244.1,9.3 243.6,9.2C243.1,9.1 242.4,9.1 241.5,9L240.9,9L240.8,8.9C240.9,8.3 241,7.6 241.2,6.8C241.4,6 241.6,5.4 241.8,5.1C242.2,5 242.5,5 242.8,5C243.4,5 244,5.1 244.5,5.3C245,5.5 245.6,5.8 246.1,6.1L247,6.7C248.4,7.6 249.5,8.3 250.2,8.7C250.9,9.1 251.4,9.3 251.7,9.3C251.6,10.1 251.6,10.8 251.4,11.4C252,11.5 252.8,11.6 253.6,11.6C254.2,11.8 254.4,12 254.4,12.4ZM245.2,20.9C244.6,20.5 244.2,20.2 244,19.9C244.1,19.7 244.2,19.4 244.4,19C244.6,18.6 244.8,18.3 245.1,18C245.4,17.7 245.6,17.5 245.8,17.5C246,17.5 246.3,17.6 246.6,17.8C247,18 247.3,18.2 247.7,18.5C248,18.8 248.2,19 248.2,19.2C248.3,19.5 248.1,19.9 247.6,20.5C247.2,21.1 246.8,21.5 246.5,21.7C246.2,21.6 245.8,21.3 245.2,20.9Z" style="fill-rule:nonzero;"/>
            <path d="M264.3,12.4C264.4,12.8 264.4,13.4 264.4,14.2C264.4,15 264.3,15.6 264.2,16C264.1,16.4 263.9,16.6 263.7,16.6C262.9,16.6 262.2,16.4 261.5,16.1C260.8,15.8 260.2,15.4 259.8,14.8L259.6,14.8C258.7,15.5 257.8,16 256.9,16.2C255.9,16.4 254.9,16.6 253.9,16.6C253.6,16.6 253.5,16.4 253.4,16C253.3,15.6 253.2,15 253.2,14.2C253.2,13.4 253.2,12.8 253.3,12.4C253.4,12 253.6,11.8 253.8,11.8C255.1,11.8 256.2,11.6 257,11.2C257.9,10.8 258.5,10.1 259,9.1L261.1,9.4L261.1,10C261.1,10.7 261.3,11.2 261.7,11.4C262.1,11.6 262.7,11.8 263.7,11.8C264,11.8 264.2,12 264.3,12.4ZM262.3,6.2C261.9,6.8 261.6,7.2 261.3,7.4C261,7.3 260.6,7 260.1,6.7C259.6,6.4 259.3,6.1 259,5.8C258.8,6.1 258.6,6.4 258.3,6.7C258,7 257.8,7.2 257.6,7.4C257.3,7.2 256.8,7 256.3,6.6C255.8,6.2 255.4,5.9 255.2,5.7C255.3,5.3 255.6,4.9 256,4.3C256.4,3.7 256.7,3.4 257,3.4C257.3,3.4 257.7,3.6 258.2,4C258.7,4.4 259.1,4.7 259.2,4.9C259.4,4.5 259.7,4.1 259.9,3.8C260.2,3.5 260.4,3.4 260.6,3.4C260.9,3.4 261.3,3.6 261.9,4C262.5,4.4 262.8,4.7 262.8,5C262.9,5.2 262.7,5.7 262.3,6.2Z" style="fill-rule:nonzero;"/>
            <path d="M272.2,12.4C272.3,12.8 272.3,13.4 272.3,14.2C272.3,15 272.2,15.6 272.1,16C272,16.4 271.8,16.6 271.6,16.6C270.9,16.6 270.2,16.5 269.6,16.2C269,15.9 268.4,15.5 268.1,14.8L267.9,14.8C267.4,15.5 266.9,15.9 266.2,16.2C265.5,16.5 264.7,16.6 263.8,16.6C263.5,16.6 263.4,16.4 263.3,16C263.2,15.6 263.1,15 263.1,14.2C263.1,13.4 263.1,12.8 263.2,12.4C263.3,12 263.5,11.8 263.7,11.8C264.6,11.8 265.4,11.6 266.1,11.2C266.7,10.8 267.2,10.1 267.4,9.2L269.5,9.5L269.5,10.1C269.5,10.8 269.7,11.3 270,11.5C270.3,11.7 270.9,11.9 271.7,11.9C271.9,11.8 272.1,12 272.2,12.4ZM266.5,6.6C265.9,6.2 265.5,5.9 265.3,5.6C265.4,5.4 265.5,5.1 265.7,4.7C265.9,4.3 266.1,4 266.4,3.7C266.7,3.4 266.9,3.2 267.1,3.2C267.3,3.2 267.6,3.3 267.9,3.5C268.2,3.7 268.6,3.9 269,4.2C269.3,4.5 269.5,4.7 269.5,4.9C269.6,5.2 269.4,5.6 268.9,6.2C268.5,6.8 268.1,7.2 267.8,7.4C267.5,7.2 267,7 266.5,6.6Z" style="fill-rule:nonzero;"/>
            <path d="M281.7,7.6C282.3,8 282.7,8.6 283,9.4C283.3,10.2 283.5,11 283.5,12C283.5,13.3 283.2,14.4 282.6,15.3C282,16.2 281.2,16.6 280.2,16.6C279.5,16.6 278.8,16.4 278.1,16C277.4,15.6 276.7,15.1 276,14.5C275.4,15.1 274.8,15.6 274.1,15.9C273.4,16.2 272.5,16.4 271.6,16.4C271.3,16.4 271.2,16.2 271.1,15.8C271,15.4 270.9,14.8 270.9,14C270.9,13.2 270.9,12.6 271,12.2C271.1,11.8 271.3,11.6 271.5,11.6C272.3,11.6 272.9,11.5 273.5,11.2C274.1,11 274.5,10.7 274.9,10.3C275.3,9.9 275.7,9.5 276.2,8.9C276.8,8.2 277.3,7.6 277.8,7.3C278.3,7 279,7 279.7,7C280.5,7 281.1,7.2 281.7,7.6ZM280.9,12.2C281.2,12.1 281.3,12.1 281.4,12C281.4,11.8 281.2,11.6 280.9,11.4C280.6,11.2 280.2,11.1 279.6,11.1C278.8,11.1 278.2,11.3 277.6,11.6C277.9,11.8 278.3,12 278.7,12.1C279.1,12.2 279.6,12.3 280,12.3C280.3,12.3 280.6,12.3 280.9,12.2Z" style="fill-rule:nonzero;"/>
        </g>
    </g>
</svg>
